<svg width="1363" height="297" viewBox="0 0 1363 297" fill="none" xmlns="http://www.w3.org/2000/svg">
<path d="M0 15C0 6.71573 6.71573 0 15 0H37V297H15C6.71573 297 0 290.284 0 282V15Z" fill="#DABFFF"/>
<path d="M37 0H1066V297H37V0Z" fill="#F0F0F0"/>
<path d="M105.639 67.1426V49.4062H110.895V67.1426C110.895 68.8535 110.52 70.3242 109.77 71.5547C109.02 72.7734 107.994 73.7109 106.693 74.3672C105.404 75.0234 103.951 75.3516 102.334 75.3516C100.658 75.3516 99.1758 75.0703 97.8867 74.5078C96.5977 73.9453 95.584 73.084 94.8457 71.9238C94.1074 70.752 93.7383 69.2695 93.7383 67.4766H99.0293C99.0293 68.4141 99.1582 69.1582 99.416 69.709C99.6855 70.2598 100.066 70.6523 100.559 70.8867C101.051 71.1211 101.643 71.2383 102.334 71.2383C103.002 71.2383 103.582 71.0801 104.074 70.7637C104.566 70.4473 104.947 69.9844 105.217 69.375C105.498 68.7656 105.639 68.0215 105.639 67.1426ZM114.27 65.6836V65.3145C114.27 63.9199 114.469 62.6367 114.867 61.4648C115.266 60.2812 115.846 59.2559 116.607 58.3887C117.369 57.5215 118.307 56.8477 119.42 56.3672C120.533 55.875 121.811 55.6289 123.252 55.6289C124.693 55.6289 125.977 55.875 127.102 56.3672C128.227 56.8477 129.17 57.5215 129.932 58.3887C130.705 59.2559 131.291 60.2812 131.689 61.4648C132.088 62.6367 132.287 63.9199 132.287 65.3145V65.6836C132.287 67.0664 132.088 68.3496 131.689 69.5332C131.291 70.7051 130.705 71.7305 129.932 72.6094C129.17 73.4766 128.232 74.1504 127.119 74.6309C126.006 75.1113 124.729 75.3516 123.287 75.3516C121.846 75.3516 120.562 75.1113 119.438 74.6309C118.324 74.1504 117.381 73.4766 116.607 72.6094C115.846 71.7305 115.266 70.7051 114.867 69.5332C114.469 68.3496 114.27 67.0664 114.27 65.6836ZM119.332 65.3145V65.6836C119.332 66.4805 119.402 67.2246 119.543 67.916C119.684 68.6074 119.906 69.2168 120.211 69.7441C120.527 70.2598 120.938 70.6641 121.441 70.957C121.945 71.25 122.561 71.3965 123.287 71.3965C123.99 71.3965 124.594 71.25 125.098 70.957C125.602 70.6641 126.006 70.2598 126.311 69.7441C126.615 69.2168 126.838 68.6074 126.979 67.916C127.131 67.2246 127.207 66.4805 127.207 65.6836V65.3145C127.207 64.541 127.131 63.8145 126.979 63.1348C126.838 62.4434 126.609 61.834 126.293 61.3066C125.988 60.7676 125.584 60.3457 125.08 60.041C124.576 59.7363 123.967 59.584 123.252 59.584C122.537 59.584 121.928 59.7363 121.424 60.041C120.932 60.3457 120.527 60.7676 120.211 61.3066C119.906 61.834 119.684 62.4434 119.543 63.1348C119.402 63.8145 119.332 64.541 119.332 65.3145ZM146.648 70.4473V55.9805H151.711V75H146.947L146.648 70.4473ZM147.211 66.5449L148.705 66.5098C148.705 67.7754 148.559 68.9531 148.266 70.043C147.973 71.1211 147.533 72.0586 146.947 72.8555C146.361 73.6406 145.623 74.2559 144.732 74.7012C143.842 75.1348 142.793 75.3516 141.586 75.3516C140.66 75.3516 139.805 75.2227 139.02 74.9648C138.246 74.6953 137.578 74.2793 137.016 73.7168C136.465 73.1426 136.031 72.4102 135.715 71.5195C135.41 70.6172 135.258 69.5332 135.258 68.2676V55.9805H140.32V68.3027C140.32 68.8652 140.385 69.3398 140.514 69.7266C140.654 70.1133 140.848 70.4297 141.094 70.6758C141.34 70.9219 141.627 71.0977 141.955 71.2031C142.295 71.3086 142.67 71.3613 143.08 71.3613C144.123 71.3613 144.943 71.1504 145.541 70.7285C146.15 70.3066 146.578 69.7324 146.824 69.0059C147.082 68.2676 147.211 67.4473 147.211 66.5449ZM166.811 70.8516V48H171.908V75H167.32L166.811 70.8516ZM154.787 65.7188V65.3496C154.787 63.8965 154.951 62.5781 155.279 61.3945C155.607 60.1992 156.088 59.1738 156.721 58.3184C157.354 57.4629 158.133 56.8008 159.059 56.332C159.984 55.8633 161.039 55.6289 162.223 55.6289C163.336 55.6289 164.309 55.8633 165.141 56.332C165.984 56.8008 166.699 57.4688 167.285 58.3359C167.883 59.1914 168.363 60.2051 168.727 61.377C169.09 62.5371 169.354 63.8086 169.518 65.1914V66C169.354 67.3242 169.09 68.5547 168.727 69.6914C168.363 70.8281 167.883 71.8242 167.285 72.6797C166.699 73.5234 165.984 74.1797 165.141 74.6484C164.297 75.1172 163.312 75.3516 162.188 75.3516C161.004 75.3516 159.949 75.1113 159.023 74.6309C158.109 74.1504 157.336 73.4766 156.703 72.6094C156.082 71.7422 155.607 70.7227 155.279 69.5508C154.951 68.3789 154.787 67.1016 154.787 65.7188ZM159.85 65.3496V65.7188C159.85 66.5039 159.908 67.2363 160.025 67.916C160.154 68.5957 160.359 69.1992 160.641 69.7266C160.934 70.2422 161.309 70.6465 161.766 70.9395C162.234 71.2207 162.803 71.3613 163.471 71.3613C164.338 71.3613 165.053 71.168 165.615 70.7812C166.178 70.3828 166.605 69.8379 166.898 69.1465C167.203 68.4551 167.379 67.6582 167.426 66.7559V64.4531C167.391 63.7148 167.285 63.0527 167.109 62.4668C166.945 61.8691 166.699 61.3594 166.371 60.9375C166.055 60.5156 165.656 60.1875 165.176 59.9531C164.707 59.7188 164.15 59.6016 163.506 59.6016C162.85 59.6016 162.287 59.7539 161.818 60.0586C161.35 60.3516 160.969 60.7559 160.676 61.2715C160.395 61.7871 160.184 62.3965 160.043 63.0996C159.914 63.791 159.85 64.541 159.85 65.3496ZM195.551 53.7832L188.59 75H182.982L192.492 49.4062H196.061L195.551 53.7832ZM201.334 75L194.355 53.7832L193.793 49.4062H197.396L206.959 75H201.334ZM201.018 65.4727V69.6035H187.5V65.4727H201.018ZM209.016 48H214.078V70.6406L213.568 75H209.016V48ZM226.119 65.2969V65.666C226.119 67.084 225.967 68.3848 225.662 69.5684C225.369 70.752 224.912 71.7773 224.291 72.6445C223.67 73.5 222.896 74.168 221.971 74.6484C221.057 75.1172 219.979 75.3516 218.736 75.3516C217.576 75.3516 216.568 75.1172 215.713 74.6484C214.869 74.1797 214.16 73.5176 213.586 72.6621C213.012 71.8066 212.549 70.8047 212.197 69.6562C211.846 68.5078 211.582 67.2539 211.406 65.8945V65.0859C211.582 63.7266 211.846 62.4727 212.197 61.3242C212.549 60.1758 213.012 59.1738 213.586 58.3184C214.16 57.4629 214.869 56.8008 215.713 56.332C216.557 55.8633 217.553 55.6289 218.701 55.6289C219.955 55.6289 221.045 55.8691 221.971 56.3496C222.908 56.8184 223.682 57.4863 224.291 58.3535C224.912 59.209 225.369 60.2285 225.662 61.4121C225.967 62.584 226.119 63.8789 226.119 65.2969ZM221.057 65.666V65.2969C221.057 64.5234 220.998 63.7969 220.881 63.1172C220.775 62.4258 220.588 61.8223 220.318 61.3066C220.049 60.7793 219.68 60.3633 219.211 60.0586C218.754 59.7539 218.162 59.6016 217.436 59.6016C216.744 59.6016 216.158 59.7188 215.678 59.9531C215.197 60.1875 214.799 60.5156 214.482 60.9375C214.178 61.3594 213.949 61.8633 213.797 62.4492C213.645 63.0234 213.551 63.6562 213.516 64.3477V66.6504C213.551 67.5762 213.703 68.3965 213.973 69.1113C214.254 69.8145 214.676 70.3711 215.238 70.7812C215.812 71.1797 216.557 71.3789 217.471 71.3789C218.186 71.3789 218.777 71.2383 219.246 70.957C219.715 70.6758 220.078 70.2773 220.336 69.7617C220.605 69.2461 220.793 68.6426 220.898 67.9512C221.004 67.248 221.057 66.4863 221.057 65.666ZM234.609 55.9805V75H229.529V55.9805H234.609ZM229.213 51.0234C229.213 50.2852 229.471 49.6758 229.986 49.1953C230.502 48.7148 231.193 48.4746 232.061 48.4746C232.916 48.4746 233.602 48.7148 234.117 49.1953C234.645 49.6758 234.908 50.2852 234.908 51.0234C234.908 51.7617 234.645 52.3711 234.117 52.8516C233.602 53.332 232.916 53.5723 232.061 53.5723C231.193 53.5723 230.502 53.332 229.986 52.8516C229.471 52.3711 229.213 51.7617 229.213 51.0234ZM265.143 59.8301V63.9434H251.783V59.8301H265.143ZM253.348 49.4062V75H248.074V49.4062H253.348ZM268.904 49.4062V75H263.648V49.4062H268.904ZM283.441 70.7109V62.2383C283.441 61.6289 283.342 61.1074 283.143 60.6738C282.943 60.2285 282.633 59.8828 282.211 59.6367C281.801 59.3906 281.268 59.2676 280.611 59.2676C280.049 59.2676 279.562 59.3672 279.152 59.5664C278.742 59.7539 278.426 60.0293 278.203 60.3926C277.98 60.7441 277.869 61.1602 277.869 61.6406H272.807C272.807 60.832 272.994 60.0645 273.369 59.3379C273.744 58.6113 274.289 57.9727 275.004 57.4219C275.719 56.8594 276.568 56.4199 277.553 56.1035C278.549 55.7871 279.662 55.6289 280.893 55.6289C282.369 55.6289 283.682 55.875 284.83 56.3672C285.979 56.8594 286.881 57.5977 287.537 58.582C288.205 59.5664 288.539 60.7969 288.539 62.2734V70.4121C288.539 71.4551 288.604 72.3105 288.732 72.9785C288.861 73.6348 289.049 74.209 289.295 74.7012V75H284.18C283.934 74.4844 283.746 73.8398 283.617 73.0664C283.5 72.2812 283.441 71.4961 283.441 70.7109ZM284.109 63.416L284.145 66.2812H281.314C280.646 66.2812 280.066 66.3574 279.574 66.5098C279.082 66.6621 278.678 66.8789 278.361 67.1602C278.045 67.4297 277.811 67.7461 277.658 68.1094C277.518 68.4727 277.447 68.8711 277.447 69.3047C277.447 69.7383 277.547 70.1309 277.746 70.4824C277.945 70.8223 278.232 71.0918 278.607 71.291C278.982 71.4785 279.422 71.5723 279.926 71.5723C280.688 71.5723 281.35 71.4199 281.912 71.1152C282.475 70.8105 282.908 70.4355 283.213 69.9902C283.529 69.5449 283.693 69.123 283.705 68.7246L285.041 70.8691C284.854 71.3496 284.596 71.8477 284.268 72.3633C283.951 72.8789 283.547 73.3652 283.055 73.8223C282.562 74.2676 281.971 74.6367 281.279 74.9297C280.588 75.2109 279.768 75.3516 278.818 75.3516C277.611 75.3516 276.516 75.1113 275.531 74.6309C274.559 74.1387 273.785 73.4648 273.211 72.6094C272.648 71.7422 272.367 70.7578 272.367 69.6562C272.367 68.6602 272.555 67.7754 272.93 67.002C273.305 66.2285 273.855 65.5781 274.582 65.0508C275.32 64.5117 276.24 64.1074 277.342 63.8379C278.443 63.5566 279.721 63.416 281.174 63.416H284.109ZM297.785 55.9805V75H292.705V55.9805H297.785ZM292.389 51.0234C292.389 50.2852 292.646 49.6758 293.162 49.1953C293.678 48.7148 294.369 48.4746 295.236 48.4746C296.092 48.4746 296.777 48.7148 297.293 49.1953C297.82 49.6758 298.084 50.2852 298.084 51.0234C298.084 51.7617 297.82 52.3711 297.293 52.8516C296.777 53.332 296.092 53.5723 295.236 53.5723C294.369 53.5723 293.678 53.332 293.162 52.8516C292.646 52.3711 292.389 51.7617 292.389 51.0234ZM313.201 70.8516V48H318.299V75H313.711L313.201 70.8516ZM301.178 65.7188V65.3496C301.178 63.8965 301.342 62.5781 301.67 61.3945C301.998 60.1992 302.479 59.1738 303.111 58.3184C303.744 57.4629 304.523 56.8008 305.449 56.332C306.375 55.8633 307.43 55.6289 308.613 55.6289C309.727 55.6289 310.699 55.8633 311.531 56.332C312.375 56.8008 313.09 57.4688 313.676 58.3359C314.273 59.1914 314.754 60.2051 315.117 61.377C315.48 62.5371 315.744 63.8086 315.908 65.1914V66C315.744 67.3242 315.48 68.5547 315.117 69.6914C314.754 70.8281 314.273 71.8242 313.676 72.6797C313.09 73.5234 312.375 74.1797 311.531 74.6484C310.688 75.1172 309.703 75.3516 308.578 75.3516C307.395 75.3516 306.34 75.1113 305.414 74.6309C304.5 74.1504 303.727 73.4766 303.094 72.6094C302.473 71.7422 301.998 70.7227 301.67 69.5508C301.342 68.3789 301.178 67.1016 301.178 65.7188ZM306.24 65.3496V65.7188C306.24 66.5039 306.299 67.2363 306.416 67.916C306.545 68.5957 306.75 69.1992 307.031 69.7266C307.324 70.2422 307.699 70.6465 308.156 70.9395C308.625 71.2207 309.193 71.3613 309.861 71.3613C310.729 71.3613 311.443 71.168 312.006 70.7812C312.568 70.3828 312.996 69.8379 313.289 69.1465C313.594 68.4551 313.77 67.6582 313.816 66.7559V64.4531C313.781 63.7148 313.676 63.0527 313.5 62.4668C313.336 61.8691 313.09 61.3594 312.762 60.9375C312.445 60.5156 312.047 60.1875 311.566 59.9531C311.098 59.7188 310.541 59.6016 309.896 59.6016C309.24 59.6016 308.678 59.7539 308.209 60.0586C307.74 60.3516 307.359 60.7559 307.066 61.2715C306.785 61.7871 306.574 62.3965 306.434 63.0996C306.305 63.791 306.24 64.541 306.24 65.3496ZM332.52 70.7109V62.2383C332.52 61.6289 332.42 61.1074 332.221 60.6738C332.021 60.2285 331.711 59.8828 331.289 59.6367C330.879 59.3906 330.346 59.2676 329.689 59.2676C329.127 59.2676 328.641 59.3672 328.23 59.5664C327.82 59.7539 327.504 60.0293 327.281 60.3926C327.059 60.7441 326.947 61.1602 326.947 61.6406H321.885C321.885 60.832 322.072 60.0645 322.447 59.3379C322.822 58.6113 323.367 57.9727 324.082 57.4219C324.797 56.8594 325.646 56.4199 326.631 56.1035C327.627 55.7871 328.74 55.6289 329.971 55.6289C331.447 55.6289 332.76 55.875 333.908 56.3672C335.057 56.8594 335.959 57.5977 336.615 58.582C337.283 59.5664 337.617 60.7969 337.617 62.2734V70.4121C337.617 71.4551 337.682 72.3105 337.811 72.9785C337.939 73.6348 338.127 74.209 338.373 74.7012V75H333.258C333.012 74.4844 332.824 73.8398 332.695 73.0664C332.578 72.2812 332.52 71.4961 332.52 70.7109ZM333.188 63.416L333.223 66.2812H330.393C329.725 66.2812 329.145 66.3574 328.652 66.5098C328.16 66.6621 327.756 66.8789 327.439 67.1602C327.123 67.4297 326.889 67.7461 326.736 68.1094C326.596 68.4727 326.525 68.8711 326.525 69.3047C326.525 69.7383 326.625 70.1309 326.824 70.4824C327.023 70.8223 327.311 71.0918 327.686 71.291C328.061 71.4785 328.5 71.5723 329.004 71.5723C329.766 71.5723 330.428 71.4199 330.99 71.1152C331.553 70.8105 331.986 70.4355 332.291 69.9902C332.607 69.5449 332.771 69.123 332.783 68.7246L334.119 70.8691C333.932 71.3496 333.674 71.8477 333.346 72.3633C333.029 72.8789 332.625 73.3652 332.133 73.8223C331.641 74.2676 331.049 74.6367 330.357 74.9297C329.666 75.2109 328.846 75.3516 327.896 75.3516C326.689 75.3516 325.594 75.1113 324.609 74.6309C323.637 74.1387 322.863 73.4648 322.289 72.6094C321.727 71.7422 321.445 70.7578 321.445 69.6562C321.445 68.6602 321.633 67.7754 322.008 67.002C322.383 66.2285 322.934 65.5781 323.66 65.0508C324.398 64.5117 325.318 64.1074 326.42 63.8379C327.521 63.5566 328.799 63.416 330.252 63.416H333.188ZM346.582 60.1289V75H341.52V55.9805H346.283L346.582 60.1289ZM352.312 55.8574L352.225 60.5508C351.979 60.5156 351.68 60.4863 351.328 60.4629C350.988 60.4277 350.678 60.4102 350.396 60.4102C349.682 60.4102 349.061 60.5039 348.533 60.6914C348.018 60.8672 347.584 61.1309 347.232 61.4824C346.893 61.834 346.635 62.2617 346.459 62.7656C346.295 63.2695 346.201 63.8438 346.178 64.4883L345.158 64.1719C345.158 62.9414 345.281 61.8105 345.527 60.7793C345.773 59.7363 346.131 58.8281 346.6 58.0547C347.08 57.2812 347.666 56.6836 348.357 56.2617C349.049 55.8398 349.84 55.6289 350.73 55.6289C351.012 55.6289 351.299 55.6523 351.592 55.6992C351.885 55.7344 352.125 55.7871 352.312 55.8574Z" fill="#888888"/>
<path d="M100.793 100.188H108.613L117.5 127.887L126.387 100.188H134.207L120.672 140H114.328L100.793 100.188ZM96.0352 100.188H104.129L105.633 130.703V140H96.0352V100.188ZM130.871 100.188H138.992V140H129.367V130.703L130.871 100.188ZM160.074 132.562V120.367C160.074 119.529 159.956 118.809 159.719 118.207C159.482 117.605 159.108 117.141 158.598 116.812C158.087 116.466 157.404 116.293 156.547 116.293C155.854 116.293 155.262 116.411 154.77 116.648C154.277 116.885 153.904 117.241 153.648 117.715C153.393 118.189 153.266 118.79 153.266 119.52H144.051C144.051 118.152 144.352 116.885 144.953 115.719C145.573 114.534 146.448 113.504 147.578 112.629C148.727 111.754 150.094 111.079 151.68 110.605C153.284 110.113 155.07 109.867 157.039 109.867C159.391 109.867 161.487 110.259 163.328 111.043C165.188 111.827 166.655 113.003 167.73 114.57C168.806 116.12 169.344 118.07 169.344 120.422V132.535C169.344 134.467 169.453 135.935 169.672 136.938C169.891 137.922 170.201 138.788 170.602 139.535V140H161.359C160.922 139.089 160.594 137.977 160.375 136.664C160.174 135.333 160.074 133.966 160.074 132.562ZM161.195 121.926L161.25 126.848H157.176C156.319 126.848 155.59 126.966 154.988 127.203C154.405 127.44 153.931 127.768 153.566 128.188C153.22 128.589 152.965 129.044 152.801 129.555C152.655 130.065 152.582 130.603 152.582 131.168C152.582 131.715 152.71 132.207 152.965 132.645C153.238 133.064 153.603 133.392 154.059 133.629C154.514 133.866 155.025 133.984 155.59 133.984C156.611 133.984 157.477 133.793 158.188 133.41C158.917 133.009 159.473 132.526 159.855 131.961C160.238 131.396 160.43 130.867 160.43 130.375L162.453 134.148C162.089 134.878 161.669 135.616 161.195 136.363C160.74 137.111 160.165 137.803 159.473 138.441C158.798 139.061 157.969 139.572 156.984 139.973C156 140.355 154.806 140.547 153.402 140.547C151.579 140.547 149.902 140.173 148.371 139.426C146.858 138.678 145.646 137.639 144.734 136.309C143.823 134.96 143.367 133.41 143.367 131.66C143.367 130.129 143.641 128.762 144.188 127.559C144.753 126.355 145.6 125.335 146.73 124.496C147.861 123.658 149.301 123.02 151.051 122.582C152.801 122.145 154.861 121.926 157.23 121.926H161.195ZM183.754 117.742V140H174.539V110.414H183.152L183.754 117.742ZM192.504 110.195L192.34 118.754C191.975 118.717 191.483 118.672 190.863 118.617C190.243 118.562 189.724 118.535 189.305 118.535C188.229 118.535 187.299 118.663 186.516 118.918C185.75 119.155 185.112 119.52 184.602 120.012C184.109 120.486 183.745 121.087 183.508 121.816C183.289 122.546 183.189 123.393 183.207 124.359L181.539 123.266C181.539 121.279 181.73 119.474 182.113 117.852C182.514 116.211 183.079 114.798 183.809 113.613C184.538 112.41 185.422 111.49 186.461 110.852C187.5 110.195 188.667 109.867 189.961 109.867C190.417 109.867 190.863 109.895 191.301 109.949C191.757 110.004 192.158 110.086 192.504 110.195ZM204.973 97.9727V140H195.758V97.9727H204.973ZM223.895 110.414L211.043 125.48L204.316 132.207L200.297 126.355L205.902 119.055L212.848 110.414H223.895ZM214.023 140L206.121 126.52L212.93 121.68L224.578 140H214.023ZM240.082 140.547C237.676 140.547 235.525 140.173 233.629 139.426C231.733 138.66 230.129 137.612 228.816 136.281C227.522 134.951 226.529 133.419 225.836 131.688C225.161 129.956 224.824 128.124 224.824 126.191V125.152C224.824 122.983 225.125 120.978 225.727 119.137C226.328 117.277 227.221 115.655 228.406 114.27C229.591 112.884 231.077 111.809 232.863 111.043C234.65 110.259 236.728 109.867 239.098 109.867C241.194 109.867 243.072 110.204 244.73 110.879C246.389 111.553 247.793 112.52 248.941 113.777C250.108 115.035 250.992 116.557 251.594 118.344C252.214 120.13 252.523 122.135 252.523 124.359V128.105H228.352V122.336H243.527V121.625C243.546 120.641 243.372 119.802 243.008 119.109C242.661 118.417 242.151 117.888 241.477 117.523C240.802 117.159 239.982 116.977 239.016 116.977C238.013 116.977 237.184 117.195 236.527 117.633C235.889 118.07 235.388 118.672 235.023 119.438C234.677 120.185 234.431 121.051 234.285 122.035C234.139 123.02 234.066 124.059 234.066 125.152V126.191C234.066 127.285 234.212 128.279 234.504 129.172C234.814 130.065 235.251 130.831 235.816 131.469C236.4 132.089 237.092 132.572 237.895 132.918C238.715 133.264 239.645 133.438 240.684 133.438C241.941 133.438 243.181 133.201 244.402 132.727C245.624 132.253 246.672 131.469 247.547 130.375L251.73 135.352C251.129 136.208 250.272 137.038 249.16 137.84C248.066 138.642 246.754 139.298 245.223 139.809C243.691 140.301 241.978 140.547 240.082 140.547ZM271.855 110.414V116.812H254.027V110.414H271.855ZM257.773 103.059H266.988V130.348C266.988 131.132 267.079 131.742 267.262 132.18C267.444 132.599 267.754 132.9 268.191 133.082C268.647 133.246 269.249 133.328 269.996 133.328C270.525 133.328 270.962 133.319 271.309 133.301C271.655 133.264 271.983 133.219 272.293 133.164V139.754C271.509 140.009 270.689 140.201 269.832 140.328C268.975 140.474 268.064 140.547 267.098 140.547C265.129 140.547 263.443 140.237 262.039 139.617C260.654 138.997 259.596 138.022 258.867 136.691C258.138 135.361 257.773 133.629 257.773 131.496V103.059ZM280.715 100.188H288.535L297.422 127.887L306.309 100.188H314.129L300.594 140H294.25L280.715 100.188ZM275.957 100.188H284.051L285.555 130.703V140H275.957V100.188ZM310.793 100.188H318.914V140H309.289V130.703L310.793 100.188ZM334.363 110.414V140H325.121V110.414H334.363ZM324.574 102.785C324.574 101.473 325.048 100.397 325.996 99.5586C326.944 98.7201 328.174 98.3008 329.688 98.3008C331.201 98.3008 332.431 98.7201 333.379 99.5586C334.327 100.397 334.801 101.473 334.801 102.785C334.801 104.098 334.327 105.173 333.379 106.012C332.431 106.85 331.201 107.27 329.688 107.27C328.174 107.27 326.944 106.85 325.996 106.012C325.048 105.173 324.574 104.098 324.574 102.785ZM349.102 116.73V140H339.887V110.414H348.527L349.102 116.73ZM348.008 124.195L345.848 124.25C345.848 121.99 346.121 119.975 346.668 118.207C347.215 116.421 347.99 114.908 348.992 113.668C349.995 112.428 351.189 111.49 352.574 110.852C353.978 110.195 355.536 109.867 357.25 109.867C358.617 109.867 359.866 110.068 360.996 110.469C362.145 110.87 363.129 111.517 363.949 112.41C364.788 113.303 365.426 114.488 365.863 115.965C366.319 117.423 366.547 119.228 366.547 121.379V140H357.277V121.352C357.277 120.167 357.113 119.264 356.785 118.645C356.457 118.007 355.983 117.569 355.363 117.332C354.743 117.095 353.987 116.977 353.094 116.977C352.146 116.977 351.344 117.159 350.688 117.523C350.031 117.888 349.503 118.398 349.102 119.055C348.719 119.693 348.436 120.449 348.254 121.324C348.09 122.199 348.008 123.156 348.008 124.195ZM388.668 133.219V98H397.938V140H389.625L388.668 133.219ZM370.512 125.562V124.988C370.512 122.746 370.758 120.704 371.25 118.863C371.742 117.004 372.471 115.409 373.438 114.078C374.404 112.729 375.607 111.69 377.047 110.961C378.487 110.232 380.146 109.867 382.023 109.867C383.701 109.867 385.168 110.259 386.426 111.043C387.684 111.809 388.759 112.884 389.652 114.27C390.546 115.655 391.275 117.277 391.84 119.137C392.405 120.978 392.833 122.965 393.125 125.098V125.781C392.833 127.786 392.405 129.682 391.84 131.469C391.275 133.237 390.546 134.805 389.652 136.172C388.759 137.539 387.674 138.615 386.398 139.398C385.141 140.164 383.664 140.547 381.969 140.547C380.091 140.547 378.432 140.173 376.992 139.426C375.57 138.678 374.376 137.63 373.41 136.281C372.462 134.932 371.742 133.346 371.25 131.523C370.758 129.701 370.512 127.714 370.512 125.562ZM379.727 124.988V125.562C379.727 126.674 379.799 127.704 379.945 128.652C380.091 129.6 380.337 130.439 380.684 131.168C381.048 131.879 381.522 132.435 382.105 132.836C382.707 133.237 383.445 133.438 384.32 133.438C385.505 133.438 386.48 133.155 387.246 132.59C388.03 132.025 388.604 131.223 388.969 130.184C389.352 129.145 389.516 127.923 389.461 126.52V124.359C389.497 123.156 389.415 122.099 389.215 121.188C389.014 120.258 388.695 119.483 388.258 118.863C387.839 118.243 387.301 117.779 386.645 117.469C386.007 117.141 385.25 116.977 384.375 116.977C383.518 116.977 382.789 117.177 382.188 117.578C381.604 117.979 381.13 118.544 380.766 119.273C380.401 119.984 380.137 120.832 379.973 121.816C379.809 122.783 379.727 123.84 379.727 124.988Z" fill="black"/>
<rect x="93" y="178" width="917" height="77" rx="10" fill="#D3D3D3"/>
<rect x="111" y="196" width="102" height="41" rx="3" fill="#424242"/>
<rect x="111" y="196" width="102" height="41" rx="3" stroke="#424242" stroke-width="4"/>
<path d="M139.166 218.658H135.984V216.276H139.166C139.6 216.276 139.951 216.203 140.221 216.057C140.49 215.91 140.687 215.708 140.81 215.45C140.938 215.187 141.003 214.891 141.003 214.562C141.003 214.211 140.938 213.886 140.81 213.587C140.687 213.288 140.49 213.048 140.221 212.866C139.951 212.679 139.6 212.585 139.166 212.585H137.145V223H134.06V210.203H139.166C140.191 210.203 141.073 210.391 141.812 210.766C142.556 211.141 143.127 211.656 143.525 212.312C143.924 212.963 144.123 213.707 144.123 214.545C144.123 215.371 143.924 216.092 143.525 216.707C143.127 217.322 142.556 217.803 141.812 218.148C141.073 218.488 140.191 218.658 139.166 218.658ZM148.702 221.884L151.163 213.49H154.345L150.521 224.415C150.439 224.655 150.331 224.913 150.196 225.188C150.062 225.47 149.877 225.736 149.643 225.988C149.408 226.24 149.106 226.445 148.737 226.604C148.374 226.762 147.923 226.841 147.384 226.841C147.097 226.841 146.886 226.826 146.751 226.797C146.622 226.773 146.423 226.729 146.153 226.665V224.547C146.229 224.547 146.294 224.547 146.347 224.547C146.405 224.547 146.47 224.547 146.54 224.547C146.856 224.547 147.108 224.515 147.296 224.45C147.489 224.386 147.636 224.292 147.735 224.169C147.841 224.046 147.923 223.896 147.981 223.721L148.702 221.884ZM148.078 213.49L149.95 220.144L150.275 223.281H148.289L144.905 213.49H148.078ZM160.128 213.49V215.547H154.397V213.49H160.128ZM155.602 211.126H158.563V219.897C158.563 220.149 158.593 220.346 158.651 220.486C158.71 220.621 158.81 220.718 158.95 220.776C159.097 220.829 159.29 220.855 159.53 220.855C159.7 220.855 159.841 220.853 159.952 220.847C160.063 220.835 160.169 220.82 160.269 220.803V222.921C160.017 223.003 159.753 223.064 159.478 223.105C159.202 223.152 158.909 223.176 158.599 223.176C157.966 223.176 157.424 223.076 156.973 222.877C156.527 222.678 156.188 222.364 155.953 221.937C155.719 221.509 155.602 220.952 155.602 220.267V211.126ZM164.206 209.5V223H161.244V209.5H164.206ZM163.854 217.92L163.16 217.938C163.16 217.27 163.242 216.654 163.406 216.092C163.57 215.529 163.805 215.04 164.109 214.624C164.414 214.208 164.78 213.886 165.208 213.657C165.636 213.429 166.11 213.314 166.632 213.314C167.101 213.314 167.528 213.382 167.915 213.517C168.308 213.651 168.645 213.868 168.926 214.167C169.213 214.466 169.433 214.855 169.585 215.336C169.743 215.816 169.822 216.402 169.822 217.094V223H166.843V217.076C166.843 216.689 166.787 216.391 166.676 216.18C166.57 215.963 166.418 215.813 166.219 215.731C166.02 215.644 165.776 215.6 165.489 215.6C165.144 215.6 164.862 215.658 164.646 215.775C164.429 215.893 164.262 216.057 164.145 216.268C164.033 216.473 163.957 216.716 163.916 216.997C163.875 217.278 163.854 217.586 163.854 217.92ZM171.097 218.342V218.157C171.097 217.46 171.196 216.818 171.396 216.232C171.595 215.641 171.888 215.128 172.274 214.694C172.661 214.261 173.139 213.924 173.707 213.684C174.275 213.438 174.932 213.314 175.676 213.314C176.426 213.314 177.085 213.438 177.653 213.684C178.228 213.924 178.708 214.261 179.095 214.694C179.481 215.128 179.774 215.641 179.974 216.232C180.173 216.818 180.272 217.46 180.272 218.157V218.342C180.272 219.033 180.173 219.675 179.974 220.267C179.774 220.853 179.481 221.365 179.095 221.805C178.708 222.238 178.23 222.575 177.662 222.815C177.094 223.056 176.438 223.176 175.693 223.176C174.949 223.176 174.29 223.056 173.716 222.815C173.142 222.575 172.661 222.238 172.274 221.805C171.888 221.365 171.595 220.853 171.396 220.267C171.196 219.675 171.097 219.033 171.097 218.342ZM174.059 218.157V218.342C174.059 218.699 174.085 219.033 174.138 219.344C174.19 219.654 174.278 219.927 174.401 220.161C174.524 220.39 174.691 220.568 174.902 220.697C175.113 220.826 175.377 220.891 175.693 220.891C176.004 220.891 176.262 220.826 176.467 220.697C176.678 220.568 176.845 220.39 176.968 220.161C177.091 219.927 177.179 219.654 177.231 219.344C177.284 219.033 177.311 218.699 177.311 218.342V218.157C177.311 217.812 177.284 217.486 177.231 217.182C177.179 216.871 177.091 216.599 176.968 216.364C176.845 216.124 176.678 215.937 176.467 215.802C176.256 215.667 175.992 215.6 175.676 215.6C175.365 215.6 175.104 215.667 174.894 215.802C174.688 215.937 174.524 216.124 174.401 216.364C174.278 216.599 174.19 216.871 174.138 217.182C174.085 217.486 174.059 217.812 174.059 218.157ZM184.5 215.521V223H181.538V213.49H184.315L184.5 215.521ZM184.148 217.92L183.454 217.938C183.454 217.211 183.542 216.563 183.718 215.995C183.894 215.421 184.143 214.935 184.465 214.536C184.787 214.138 185.171 213.836 185.616 213.631C186.067 213.42 186.568 213.314 187.119 213.314C187.559 213.314 187.96 213.379 188.323 213.508C188.692 213.637 189.009 213.845 189.272 214.132C189.542 214.419 189.747 214.8 189.888 215.274C190.034 215.743 190.107 216.323 190.107 217.015V223H187.128V217.006C187.128 216.625 187.075 216.335 186.97 216.136C186.864 215.931 186.712 215.79 186.513 215.714C186.313 215.638 186.07 215.6 185.783 215.6C185.479 215.6 185.221 215.658 185.01 215.775C184.799 215.893 184.629 216.057 184.5 216.268C184.377 216.473 184.286 216.716 184.228 216.997C184.175 217.278 184.148 217.586 184.148 217.92Z" fill="white"/>
<rect x="233" y="196" width="157" height="41" rx="3" fill="#424242"/>
<rect x="233" y="196" width="157" height="41" rx="3" stroke="#424242" stroke-width="4"/>
<path d="M259.337 221.84L261.886 210.203H263.406L264.232 211.196L261.517 223H259.838L259.337 221.84ZM258.66 210.203L260.813 221.928L260.26 223H258.317L255.602 210.203H258.66ZM265.63 221.866L267.766 210.203H270.815L268.1 223H266.166L265.63 221.866ZM264.505 210.203L267.115 221.91L266.588 223H264.909L262.132 211.179L262.993 210.203H264.505ZM276.212 223.176C275.438 223.176 274.747 223.056 274.138 222.815C273.528 222.569 273.013 222.232 272.591 221.805C272.175 221.377 271.855 220.885 271.633 220.328C271.416 219.771 271.308 219.183 271.308 218.562V218.228C271.308 217.53 271.404 216.886 271.598 216.294C271.791 215.696 272.078 215.175 272.459 214.729C272.84 214.284 273.317 213.938 273.892 213.692C274.466 213.44 275.134 213.314 275.896 213.314C276.569 213.314 277.173 213.423 277.706 213.64C278.239 213.856 278.69 214.167 279.06 214.571C279.435 214.976 279.719 215.465 279.912 216.039C280.111 216.613 280.211 217.258 280.211 217.973V219.177H272.441V217.322H277.319V217.094C277.325 216.777 277.27 216.508 277.152 216.285C277.041 216.062 276.877 215.893 276.66 215.775C276.443 215.658 276.18 215.6 275.869 215.6C275.547 215.6 275.28 215.67 275.069 215.811C274.864 215.951 274.703 216.145 274.586 216.391C274.475 216.631 274.396 216.909 274.349 217.226C274.302 217.542 274.278 217.876 274.278 218.228V218.562C274.278 218.913 274.325 219.232 274.419 219.52C274.519 219.807 274.659 220.053 274.841 220.258C275.028 220.457 275.251 220.612 275.509 220.724C275.772 220.835 276.071 220.891 276.405 220.891C276.81 220.891 277.208 220.814 277.601 220.662C277.993 220.51 278.33 220.258 278.611 219.906L279.956 221.506C279.763 221.781 279.487 222.048 279.13 222.306C278.778 222.563 278.356 222.774 277.864 222.938C277.372 223.097 276.821 223.176 276.212 223.176ZM281.441 209.5H284.403V220.662L284.096 223H281.441V209.5ZM290.239 218.14V218.324C290.239 219.045 290.166 219.701 290.02 220.293C289.873 220.885 289.647 221.397 289.343 221.831C289.038 222.259 288.654 222.59 288.191 222.824C287.729 223.059 287.181 223.176 286.548 223.176C285.974 223.176 285.481 223.053 285.071 222.807C284.661 222.555 284.318 222.209 284.043 221.77C283.768 221.324 283.545 220.812 283.375 220.231C283.205 219.646 283.07 219.019 282.971 218.351V218.131C283.07 217.469 283.205 216.848 283.375 216.268C283.545 215.682 283.768 215.169 284.043 214.729C284.318 214.284 284.658 213.938 285.062 213.692C285.473 213.44 285.962 213.314 286.53 213.314C287.169 213.314 287.72 213.435 288.183 213.675C288.651 213.915 289.038 214.252 289.343 214.686C289.647 215.119 289.873 215.629 290.02 216.215C290.166 216.801 290.239 217.442 290.239 218.14ZM287.277 218.324V218.14C287.277 217.794 287.257 217.469 287.216 217.164C287.175 216.859 287.102 216.59 286.996 216.355C286.891 216.121 286.741 215.937 286.548 215.802C286.354 215.667 286.103 215.6 285.792 215.6C285.476 215.6 285.209 215.652 284.992 215.758C284.781 215.863 284.611 216.016 284.482 216.215C284.359 216.408 284.271 216.648 284.219 216.936C284.166 217.217 284.143 217.536 284.148 217.894V218.588C284.137 219.074 284.181 219.49 284.28 219.836C284.38 220.182 284.553 220.445 284.799 220.627C285.045 220.809 285.382 220.899 285.81 220.899C286.126 220.899 286.381 220.838 286.574 220.715C286.773 220.592 286.923 220.416 287.022 220.188C287.122 219.959 287.189 219.687 287.225 219.37C287.26 219.054 287.277 218.705 287.277 218.324ZM302.772 219.599C302.772 219.399 302.743 219.221 302.685 219.062C302.626 218.898 302.518 218.746 302.359 218.605C302.201 218.465 301.973 218.324 301.674 218.184C301.381 218.037 300.994 217.885 300.514 217.727C299.951 217.539 299.409 217.328 298.888 217.094C298.366 216.854 297.9 216.575 297.49 216.259C297.08 215.937 296.755 215.562 296.515 215.134C296.274 214.7 296.154 214.196 296.154 213.622C296.154 213.071 296.277 212.576 296.523 212.137C296.77 211.691 297.112 211.313 297.552 211.003C297.997 210.687 298.519 210.446 299.116 210.282C299.714 210.112 300.367 210.027 301.076 210.027C302.014 210.027 302.84 210.191 303.555 210.52C304.275 210.842 304.838 211.302 305.242 211.899C305.652 212.491 305.857 213.191 305.857 214H302.79C302.79 213.678 302.723 213.394 302.588 213.147C302.459 212.901 302.263 212.708 301.999 212.567C301.735 212.427 301.404 212.356 301.006 212.356C300.619 212.356 300.294 212.415 300.03 212.532C299.767 212.649 299.567 212.808 299.433 213.007C299.298 213.2 299.23 213.414 299.23 213.648C299.23 213.842 299.283 214.018 299.389 214.176C299.5 214.328 299.655 214.472 299.854 214.606C300.06 214.741 300.306 214.87 300.593 214.993C300.886 215.116 301.214 215.236 301.577 215.354C302.257 215.57 302.86 215.813 303.388 216.083C303.921 216.347 304.369 216.648 304.732 216.988C305.102 217.322 305.38 217.703 305.567 218.131C305.761 218.559 305.857 219.042 305.857 219.581C305.857 220.155 305.746 220.665 305.523 221.11C305.301 221.556 304.981 221.934 304.565 222.244C304.149 222.549 303.651 222.78 303.071 222.938C302.491 223.097 301.844 223.176 301.129 223.176C300.473 223.176 299.825 223.094 299.187 222.93C298.554 222.76 297.979 222.502 297.464 222.156C296.948 221.805 296.535 221.356 296.225 220.812C295.92 220.261 295.768 219.607 295.768 218.852H298.861C298.861 219.227 298.911 219.543 299.011 219.801C299.11 220.059 299.257 220.267 299.45 220.425C299.644 220.577 299.881 220.688 300.162 220.759C300.443 220.823 300.766 220.855 301.129 220.855C301.521 220.855 301.838 220.8 302.078 220.688C302.318 220.571 302.494 220.419 302.605 220.231C302.717 220.038 302.772 219.827 302.772 219.599ZM311.324 220.891C311.6 220.891 311.834 220.841 312.027 220.741C312.227 220.636 312.376 220.489 312.476 220.302C312.581 220.108 312.631 219.877 312.625 219.607H315.411C315.417 220.322 315.241 220.949 314.884 221.488C314.532 222.021 314.052 222.438 313.442 222.736C312.839 223.029 312.156 223.176 311.395 223.176C310.65 223.176 310 223.056 309.443 222.815C308.887 222.569 308.421 222.229 308.046 221.796C307.677 221.356 307.398 220.844 307.211 220.258C307.029 219.672 306.938 219.036 306.938 218.351V218.148C306.938 217.463 307.029 216.827 307.211 216.241C307.398 215.649 307.677 215.137 308.046 214.703C308.421 214.264 308.884 213.924 309.435 213.684C309.991 213.438 310.639 213.314 311.377 213.314C312.168 213.314 312.865 213.464 313.469 213.763C314.078 214.062 314.556 214.495 314.901 215.063C315.247 215.632 315.417 216.32 315.411 217.129H312.625C312.631 216.842 312.587 216.584 312.493 216.355C312.399 216.127 312.253 215.945 312.054 215.811C311.86 215.67 311.611 215.6 311.307 215.6C311.002 215.6 310.756 215.667 310.568 215.802C310.381 215.937 310.237 216.124 310.138 216.364C310.044 216.599 309.979 216.868 309.944 217.173C309.915 217.478 309.9 217.803 309.9 218.148V218.351C309.9 218.702 309.915 219.033 309.944 219.344C309.979 219.648 310.047 219.918 310.146 220.152C310.246 220.381 310.39 220.562 310.577 220.697C310.765 220.826 311.014 220.891 311.324 220.891ZM319.665 215.846V223H316.703V213.49H319.472L319.665 215.846ZM322.478 213.42L322.425 216.171C322.308 216.159 322.149 216.145 321.95 216.127C321.751 216.109 321.584 216.101 321.449 216.101C321.104 216.101 320.805 216.142 320.553 216.224C320.307 216.3 320.102 216.417 319.938 216.575C319.779 216.728 319.662 216.921 319.586 217.155C319.516 217.39 319.483 217.662 319.489 217.973L318.953 217.621C318.953 216.982 319.015 216.402 319.138 215.881C319.267 215.354 319.448 214.899 319.683 214.519C319.917 214.132 320.201 213.836 320.535 213.631C320.869 213.42 321.244 213.314 321.66 213.314C321.807 213.314 321.95 213.323 322.091 213.341C322.237 213.358 322.366 213.385 322.478 213.42ZM328.173 220.609V216.689C328.173 216.42 328.135 216.188 328.059 215.995C327.982 215.802 327.862 215.652 327.698 215.547C327.534 215.436 327.314 215.38 327.039 215.38C326.816 215.38 326.626 215.418 326.468 215.494C326.31 215.57 326.189 215.685 326.107 215.837C326.025 215.989 325.984 216.183 325.984 216.417H323.022C323.022 215.978 323.119 215.57 323.312 215.195C323.512 214.814 323.793 214.483 324.156 214.202C324.525 213.921 324.965 213.704 325.475 213.552C325.99 213.394 326.564 213.314 327.197 213.314C327.953 213.314 328.627 213.44 329.219 213.692C329.816 213.944 330.288 214.322 330.634 214.826C330.979 215.324 331.152 215.951 331.152 216.707V220.601C331.152 221.222 331.188 221.693 331.258 222.016C331.328 222.332 331.428 222.61 331.557 222.851V223H328.586C328.445 222.707 328.34 222.35 328.27 221.928C328.205 221.5 328.173 221.061 328.173 220.609ZM328.533 217.19L328.551 218.772H327.241C326.966 218.772 326.731 218.811 326.538 218.887C326.351 218.963 326.198 219.068 326.081 219.203C325.97 219.332 325.888 219.479 325.835 219.643C325.788 219.807 325.765 219.979 325.765 220.161C325.765 220.337 325.806 220.495 325.888 220.636C325.976 220.771 326.093 220.876 326.239 220.952C326.386 221.028 326.55 221.066 326.731 221.066C327.06 221.066 327.338 221.005 327.566 220.882C327.801 220.753 327.979 220.598 328.103 220.416C328.226 220.234 328.287 220.064 328.287 219.906L328.938 221.119C328.82 221.354 328.686 221.591 328.533 221.831C328.387 222.071 328.202 222.294 327.979 222.499C327.763 222.698 327.496 222.862 327.18 222.991C326.863 223.114 326.479 223.176 326.028 223.176C325.442 223.176 324.903 223.056 324.411 222.815C323.925 222.575 323.535 222.241 323.242 221.813C322.949 221.38 322.803 220.882 322.803 220.319C322.803 219.827 322.891 219.388 323.066 219.001C323.248 218.614 323.521 218.286 323.884 218.017C324.247 217.747 324.71 217.542 325.272 217.401C325.835 217.261 326.497 217.19 327.259 217.19H328.533ZM335.784 215.318V226.656H332.822V213.49H335.582L335.784 215.318ZM341.62 218.131V218.315C341.62 219.007 341.541 219.648 341.383 220.24C341.225 220.832 340.99 221.348 340.68 221.787C340.369 222.227 339.982 222.569 339.52 222.815C339.062 223.056 338.532 223.176 337.929 223.176C337.36 223.176 336.871 223.05 336.461 222.798C336.051 222.546 335.708 222.197 335.433 221.752C335.157 221.307 334.935 220.797 334.765 220.223C334.595 219.648 334.46 219.042 334.36 218.403V218.166C334.46 217.48 334.595 216.845 334.765 216.259C334.935 215.667 335.157 215.151 335.433 214.712C335.708 214.272 336.048 213.93 336.452 213.684C336.862 213.438 337.352 213.314 337.92 213.314C338.523 213.314 339.054 213.429 339.511 213.657C339.974 213.886 340.36 214.214 340.671 214.642C340.987 215.063 341.225 215.57 341.383 216.162C341.541 216.754 341.62 217.41 341.62 218.131ZM338.658 218.315V218.131C338.658 217.762 338.632 217.425 338.579 217.12C338.526 216.81 338.441 216.54 338.324 216.312C338.213 216.083 338.063 215.907 337.876 215.784C337.688 215.661 337.457 215.6 337.182 215.6C336.865 215.6 336.599 215.649 336.382 215.749C336.171 215.843 336.001 215.989 335.872 216.188C335.749 216.382 335.661 216.625 335.608 216.918C335.562 217.205 335.541 217.542 335.547 217.929V218.649C335.535 219.095 335.579 219.487 335.679 219.827C335.778 220.161 335.951 220.422 336.197 220.609C336.443 220.797 336.777 220.891 337.199 220.891C337.48 220.891 337.715 220.826 337.902 220.697C338.09 220.562 338.239 220.378 338.351 220.144C338.462 219.903 338.541 219.628 338.588 219.317C338.635 219.007 338.658 218.673 338.658 218.315ZM346.067 213.49V223H343.097V213.49H346.067ZM342.921 211.038C342.921 210.616 343.073 210.271 343.378 210.001C343.683 209.731 344.078 209.597 344.564 209.597C345.051 209.597 345.446 209.731 345.751 210.001C346.056 210.271 346.208 210.616 346.208 211.038C346.208 211.46 346.056 211.806 345.751 212.075C345.446 212.345 345.051 212.479 344.564 212.479C344.078 212.479 343.683 212.345 343.378 212.075C343.073 211.806 342.921 211.46 342.921 211.038ZM350.805 215.521V223H347.843V213.49H350.62L350.805 215.521ZM350.453 217.92L349.759 217.938C349.759 217.211 349.847 216.563 350.022 215.995C350.198 215.421 350.447 214.935 350.77 214.536C351.092 214.138 351.476 213.836 351.921 213.631C352.372 213.42 352.873 213.314 353.424 213.314C353.863 213.314 354.265 213.379 354.628 213.508C354.997 213.637 355.313 213.845 355.577 214.132C355.847 214.419 356.052 214.8 356.192 215.274C356.339 215.743 356.412 216.323 356.412 217.015V223H353.433V217.006C353.433 216.625 353.38 216.335 353.274 216.136C353.169 215.931 353.017 215.79 352.817 215.714C352.618 215.638 352.375 215.6 352.088 215.6C351.783 215.6 351.525 215.658 351.314 215.775C351.104 215.893 350.934 216.057 350.805 216.268C350.682 216.473 350.591 216.716 350.532 216.997C350.479 217.278 350.453 217.586 350.453 217.92ZM364.032 213.49H366.722V222.631C366.722 223.51 366.52 224.254 366.115 224.863C365.711 225.479 365.146 225.944 364.419 226.261C363.698 226.583 362.854 226.744 361.888 226.744C361.46 226.744 361.023 226.688 360.578 226.577C360.133 226.472 359.717 226.313 359.33 226.103C358.943 225.892 358.618 225.631 358.354 225.32L359.594 223.58C359.834 223.85 360.136 224.078 360.499 224.266C360.862 224.459 361.29 224.556 361.782 224.556C362.21 224.556 362.567 224.479 362.854 224.327C363.147 224.175 363.37 223.952 363.522 223.659C363.675 223.372 363.751 223.023 363.751 222.613V215.74L364.032 213.49ZM357.713 218.359V218.175C357.713 217.454 357.801 216.798 357.977 216.206C358.158 215.608 358.416 215.096 358.75 214.668C359.09 214.234 359.5 213.9 359.98 213.666C360.461 213.432 361.003 213.314 361.606 213.314C362.257 213.314 362.79 213.44 363.206 213.692C363.628 213.938 363.965 214.284 364.217 214.729C364.475 215.175 364.674 215.696 364.814 216.294C364.961 216.886 365.084 217.524 365.184 218.21V218.43C365.084 219.074 364.946 219.684 364.771 220.258C364.601 220.826 364.378 221.33 364.103 221.77C363.827 222.209 363.481 222.555 363.065 222.807C362.655 223.053 362.163 223.176 361.589 223.176C360.991 223.176 360.452 223.056 359.972 222.815C359.497 222.575 359.09 222.238 358.75 221.805C358.416 221.371 358.158 220.861 357.977 220.275C357.801 219.689 357.713 219.051 357.713 218.359ZM360.675 218.175V218.359C360.675 218.717 360.707 219.048 360.771 219.353C360.842 219.657 360.947 219.927 361.088 220.161C361.229 220.39 361.401 220.568 361.606 220.697C361.817 220.826 362.063 220.891 362.345 220.891C362.772 220.891 363.118 220.8 363.382 220.618C363.646 220.437 363.836 220.179 363.953 219.845C364.07 219.511 364.12 219.118 364.103 218.667V217.973C364.114 217.586 364.088 217.246 364.023 216.953C363.959 216.654 363.856 216.405 363.716 216.206C363.581 216.007 363.399 215.857 363.171 215.758C362.948 215.652 362.679 215.6 362.362 215.6C362.087 215.6 361.844 215.664 361.633 215.793C361.422 215.922 361.246 216.104 361.105 216.338C360.965 216.566 360.856 216.839 360.78 217.155C360.71 217.466 360.675 217.806 360.675 218.175Z" fill="white"/>
<rect x="410" y="196" width="202" height="41" rx="3" fill="#424242"/>
<rect x="410" y="196" width="202" height="41" rx="3" stroke="#424242" stroke-width="4"/>
<path d="M439.668 219.599C439.668 219.399 439.639 219.221 439.58 219.062C439.521 218.898 439.413 218.746 439.255 218.605C439.097 218.465 438.868 218.324 438.569 218.184C438.276 218.037 437.89 217.885 437.409 217.727C436.847 217.539 436.305 217.328 435.783 217.094C435.262 216.854 434.796 216.575 434.386 216.259C433.976 215.937 433.65 215.562 433.41 215.134C433.17 214.7 433.05 214.196 433.05 213.622C433.05 213.071 433.173 212.576 433.419 212.137C433.665 211.691 434.008 211.313 434.447 211.003C434.893 210.687 435.414 210.446 436.012 210.282C436.609 210.112 437.263 210.027 437.972 210.027C438.909 210.027 439.735 210.191 440.45 210.52C441.171 210.842 441.733 211.302 442.138 211.899C442.548 212.491 442.753 213.191 442.753 214H439.686C439.686 213.678 439.618 213.394 439.483 213.147C439.354 212.901 439.158 212.708 438.895 212.567C438.631 212.427 438.3 212.356 437.901 212.356C437.515 212.356 437.189 212.415 436.926 212.532C436.662 212.649 436.463 212.808 436.328 213.007C436.193 213.2 436.126 213.414 436.126 213.648C436.126 213.842 436.179 214.018 436.284 214.176C436.396 214.328 436.551 214.472 436.75 214.606C436.955 214.741 437.201 214.87 437.488 214.993C437.781 215.116 438.109 215.236 438.473 215.354C439.152 215.57 439.756 215.813 440.283 216.083C440.816 216.347 441.265 216.648 441.628 216.988C441.997 217.322 442.275 217.703 442.463 218.131C442.656 218.559 442.753 219.042 442.753 219.581C442.753 220.155 442.642 220.665 442.419 221.11C442.196 221.556 441.877 221.934 441.461 222.244C441.045 222.549 440.547 222.78 439.967 222.938C439.387 223.097 438.739 223.176 438.024 223.176C437.368 223.176 436.721 223.094 436.082 222.93C435.449 222.76 434.875 222.502 434.359 222.156C433.844 221.805 433.431 221.356 433.12 220.812C432.815 220.261 432.663 219.607 432.663 218.852H435.757C435.757 219.227 435.807 219.543 435.906 219.801C436.006 220.059 436.152 220.267 436.346 220.425C436.539 220.577 436.776 220.688 437.058 220.759C437.339 220.823 437.661 220.855 438.024 220.855C438.417 220.855 438.733 220.8 438.974 220.688C439.214 220.571 439.39 220.419 439.501 220.231C439.612 220.038 439.668 219.827 439.668 219.599ZM448.809 223.176C448.035 223.176 447.344 223.056 446.734 222.815C446.125 222.569 445.609 222.232 445.188 221.805C444.771 221.377 444.452 220.885 444.229 220.328C444.013 219.771 443.904 219.183 443.904 218.562V218.228C443.904 217.53 444.001 216.886 444.194 216.294C444.388 215.696 444.675 215.175 445.056 214.729C445.437 214.284 445.914 213.938 446.488 213.692C447.062 213.44 447.73 213.314 448.492 213.314C449.166 213.314 449.77 213.423 450.303 213.64C450.836 213.856 451.287 214.167 451.656 214.571C452.031 214.976 452.315 215.465 452.509 216.039C452.708 216.613 452.808 217.258 452.808 217.973V219.177H445.038V217.322H449.916V217.094C449.922 216.777 449.866 216.508 449.749 216.285C449.638 216.062 449.474 215.893 449.257 215.775C449.04 215.658 448.776 215.6 448.466 215.6C448.144 215.6 447.877 215.67 447.666 215.811C447.461 215.951 447.3 216.145 447.183 216.391C447.071 216.631 446.992 216.909 446.945 217.226C446.898 217.542 446.875 217.876 446.875 218.228V218.562C446.875 218.913 446.922 219.232 447.016 219.52C447.115 219.807 447.256 220.053 447.438 220.258C447.625 220.457 447.848 220.612 448.105 220.724C448.369 220.835 448.668 220.891 449.002 220.891C449.406 220.891 449.805 220.814 450.197 220.662C450.59 220.51 450.927 220.258 451.208 219.906L452.553 221.506C452.359 221.781 452.084 222.048 451.727 222.306C451.375 222.563 450.953 222.774 450.461 222.938C449.969 223.097 449.418 223.176 448.809 223.176ZM456.921 215.521V223H453.959V213.49H456.736L456.921 215.521ZM456.569 217.92L455.875 217.938C455.875 217.211 455.963 216.563 456.139 215.995C456.314 215.421 456.563 214.935 456.886 214.536C457.208 214.138 457.592 213.836 458.037 213.631C458.488 213.42 458.989 213.314 459.54 213.314C459.979 213.314 460.381 213.379 460.744 213.508C461.113 213.637 461.43 213.845 461.693 214.132C461.963 214.419 462.168 214.8 462.309 215.274C462.455 215.743 462.528 216.323 462.528 217.015V223H459.549V217.006C459.549 216.625 459.496 216.335 459.391 216.136C459.285 215.931 459.133 215.79 458.934 215.714C458.734 215.638 458.491 215.6 458.204 215.6C457.899 215.6 457.642 215.658 457.431 215.775C457.22 215.893 457.05 216.057 456.921 216.268C456.798 216.473 456.707 216.716 456.648 216.997C456.596 217.278 456.569 217.586 456.569 217.92ZM469.182 213.49V215.547H463.451V213.49H469.182ZM464.655 211.126H467.617V219.897C467.617 220.149 467.646 220.346 467.705 220.486C467.764 220.621 467.863 220.718 468.004 220.776C468.15 220.829 468.344 220.855 468.584 220.855C468.754 220.855 468.895 220.853 469.006 220.847C469.117 220.835 469.223 220.82 469.322 220.803V222.921C469.07 223.003 468.807 223.064 468.531 223.105C468.256 223.152 467.963 223.176 467.652 223.176C467.02 223.176 466.478 223.076 466.026 222.877C465.581 222.678 465.241 222.364 465.007 221.937C464.772 221.509 464.655 220.952 464.655 220.267V211.126ZM473.488 213.49V223H470.518V213.49H473.488ZM470.342 211.038C470.342 210.616 470.494 210.271 470.799 210.001C471.104 209.731 471.499 209.597 471.985 209.597C472.472 209.597 472.867 209.731 473.172 210.001C473.477 210.271 473.629 210.616 473.629 211.038C473.629 211.46 473.477 211.806 473.172 212.075C472.867 212.345 472.472 212.479 471.985 212.479C471.499 212.479 471.104 212.345 470.799 212.075C470.494 211.806 470.342 211.46 470.342 211.038ZM478.305 215.503V223H475.343V213.49H478.12L478.305 215.503ZM477.944 217.92L477.268 217.938C477.268 217.27 477.347 216.654 477.505 216.092C477.663 215.529 477.897 215.04 478.208 214.624C478.519 214.208 478.899 213.886 479.351 213.657C479.808 213.429 480.335 213.314 480.933 213.314C481.349 213.314 481.727 213.379 482.066 213.508C482.406 213.631 482.699 213.827 482.945 214.097C483.191 214.36 483.379 214.706 483.508 215.134C483.643 215.556 483.71 216.062 483.71 216.654V223H480.748V217.032C480.748 216.628 480.701 216.323 480.607 216.118C480.52 215.913 480.391 215.775 480.221 215.705C480.051 215.635 479.843 215.6 479.597 215.6C479.339 215.6 479.107 215.658 478.902 215.775C478.697 215.893 478.521 216.057 478.375 216.268C478.234 216.473 478.126 216.716 478.05 216.997C477.979 217.278 477.944 217.586 477.944 217.92ZM483.376 217.92L482.55 217.938C482.55 217.27 482.623 216.654 482.77 216.092C482.922 215.529 483.147 215.04 483.446 214.624C483.751 214.208 484.129 213.886 484.58 213.657C485.031 213.429 485.556 213.314 486.153 213.314C486.587 213.314 486.985 213.379 487.349 213.508C487.712 213.637 488.025 213.845 488.289 214.132C488.553 214.419 488.758 214.8 488.904 215.274C489.051 215.743 489.124 216.323 489.124 217.015V223H486.153V217.015C486.153 216.622 486.106 216.326 486.013 216.127C485.925 215.922 485.796 215.784 485.626 215.714C485.456 215.638 485.254 215.6 485.02 215.6C484.738 215.6 484.495 215.658 484.29 215.775C484.085 215.893 483.912 216.057 483.771 216.268C483.637 216.473 483.537 216.716 483.473 216.997C483.408 217.278 483.376 217.586 483.376 217.92ZM495.426 223.176C494.652 223.176 493.961 223.056 493.352 222.815C492.742 222.569 492.227 222.232 491.805 221.805C491.389 221.377 491.069 220.885 490.847 220.328C490.63 219.771 490.521 219.183 490.521 218.562V218.228C490.521 217.53 490.618 216.886 490.812 216.294C491.005 215.696 491.292 215.175 491.673 214.729C492.054 214.284 492.531 213.938 493.105 213.692C493.68 213.44 494.348 213.314 495.109 213.314C495.783 213.314 496.387 213.423 496.92 213.64C497.453 213.856 497.904 214.167 498.273 214.571C498.648 214.976 498.933 215.465 499.126 216.039C499.325 216.613 499.425 217.258 499.425 217.973V219.177H491.655V217.322H496.533V217.094C496.539 216.777 496.483 216.508 496.366 216.285C496.255 216.062 496.091 215.893 495.874 215.775C495.657 215.658 495.394 215.6 495.083 215.6C494.761 215.6 494.494 215.67 494.283 215.811C494.078 215.951 493.917 216.145 493.8 216.391C493.688 216.631 493.609 216.909 493.562 217.226C493.516 217.542 493.492 217.876 493.492 218.228V218.562C493.492 218.913 493.539 219.232 493.633 219.52C493.732 219.807 493.873 220.053 494.055 220.258C494.242 220.457 494.465 220.612 494.723 220.724C494.986 220.835 495.285 220.891 495.619 220.891C496.023 220.891 496.422 220.814 496.814 220.662C497.207 220.51 497.544 220.258 497.825 219.906L499.17 221.506C498.977 221.781 498.701 222.048 498.344 222.306C497.992 222.563 497.57 222.774 497.078 222.938C496.586 223.097 496.035 223.176 495.426 223.176ZM503.538 215.521V223H500.576V213.49H503.354L503.538 215.521ZM503.187 217.92L502.492 217.938C502.492 217.211 502.58 216.563 502.756 215.995C502.932 215.421 503.181 214.935 503.503 214.536C503.825 214.138 504.209 213.836 504.654 213.631C505.105 213.42 505.606 213.314 506.157 213.314C506.597 213.314 506.998 213.379 507.361 213.508C507.73 213.637 508.047 213.845 508.311 214.132C508.58 214.419 508.785 214.8 508.926 215.274C509.072 215.743 509.146 216.323 509.146 217.015V223H506.166V217.006C506.166 216.625 506.113 216.335 506.008 216.136C505.902 215.931 505.75 215.79 505.551 215.714C505.352 215.638 505.108 215.6 504.821 215.6C504.517 215.6 504.259 215.658 504.048 215.775C503.837 215.893 503.667 216.057 503.538 216.268C503.415 216.473 503.324 216.716 503.266 216.997C503.213 217.278 503.187 217.586 503.187 217.92ZM515.799 213.49V215.547H510.068V213.49H515.799ZM511.272 211.126H514.234V219.897C514.234 220.149 514.264 220.346 514.322 220.486C514.381 220.621 514.48 220.718 514.621 220.776C514.768 220.829 514.961 220.855 515.201 220.855C515.371 220.855 515.512 220.853 515.623 220.847C515.734 220.835 515.84 220.82 515.939 220.803V222.921C515.688 223.003 515.424 223.064 515.148 223.105C514.873 223.152 514.58 223.176 514.27 223.176C513.637 223.176 513.095 223.076 512.644 222.877C512.198 222.678 511.858 222.364 511.624 221.937C511.39 221.509 511.272 220.952 511.272 220.267V211.126ZM527.022 212.893L523.902 223H520.589L525.291 210.203H527.392L527.022 212.893ZM529.606 223L526.478 212.893L526.073 210.203H528.2L532.929 223H529.606ZM529.483 218.228V220.609H522.918V218.228H529.483ZM536.216 215.521V223H533.254V213.49H536.031L536.216 215.521ZM535.864 217.92L535.17 217.938C535.17 217.211 535.258 216.563 535.434 215.995C535.609 215.421 535.858 214.935 536.181 214.536C536.503 214.138 536.887 213.836 537.332 213.631C537.783 213.42 538.284 213.314 538.835 213.314C539.274 213.314 539.676 213.379 540.039 213.508C540.408 213.637 540.725 213.845 540.988 214.132C541.258 214.419 541.463 214.8 541.604 215.274C541.75 215.743 541.823 216.323 541.823 217.015V223H538.844V217.006C538.844 216.625 538.791 216.335 538.686 216.136C538.58 215.931 538.428 215.79 538.229 215.714C538.029 215.638 537.786 215.6 537.499 215.6C537.194 215.6 536.937 215.658 536.726 215.775C536.515 215.893 536.345 216.057 536.216 216.268C536.093 216.473 536.002 216.716 535.943 216.997C535.891 217.278 535.864 217.586 535.864 217.92ZM548.406 220.609V216.689C548.406 216.42 548.368 216.188 548.292 215.995C548.216 215.802 548.096 215.652 547.932 215.547C547.768 215.436 547.548 215.38 547.272 215.38C547.05 215.38 546.859 215.418 546.701 215.494C546.543 215.57 546.423 215.685 546.341 215.837C546.259 215.989 546.218 216.183 546.218 216.417H543.256C543.256 215.978 543.353 215.57 543.546 215.195C543.745 214.814 544.026 214.483 544.39 214.202C544.759 213.921 545.198 213.704 545.708 213.552C546.224 213.394 546.798 213.314 547.431 213.314C548.187 213.314 548.86 213.44 549.452 213.692C550.05 213.944 550.521 214.322 550.867 214.826C551.213 215.324 551.386 215.951 551.386 216.707V220.601C551.386 221.222 551.421 221.693 551.491 222.016C551.562 222.332 551.661 222.61 551.79 222.851V223H548.819C548.679 222.707 548.573 222.35 548.503 221.928C548.438 221.5 548.406 221.061 548.406 220.609ZM548.767 217.19L548.784 218.772H547.475C547.199 218.772 546.965 218.811 546.771 218.887C546.584 218.963 546.432 219.068 546.314 219.203C546.203 219.332 546.121 219.479 546.068 219.643C546.021 219.807 545.998 219.979 545.998 220.161C545.998 220.337 546.039 220.495 546.121 220.636C546.209 220.771 546.326 220.876 546.473 220.952C546.619 221.028 546.783 221.066 546.965 221.066C547.293 221.066 547.571 221.005 547.8 220.882C548.034 220.753 548.213 220.598 548.336 220.416C548.459 220.234 548.521 220.064 548.521 219.906L549.171 221.119C549.054 221.354 548.919 221.591 548.767 221.831C548.62 222.071 548.436 222.294 548.213 222.499C547.996 222.698 547.729 222.862 547.413 222.991C547.097 223.114 546.713 223.176 546.262 223.176C545.676 223.176 545.137 223.056 544.645 222.815C544.158 222.575 543.769 222.241 543.476 221.813C543.183 221.38 543.036 220.882 543.036 220.319C543.036 219.827 543.124 219.388 543.3 219.001C543.481 218.614 543.754 218.286 544.117 218.017C544.48 217.747 544.943 217.542 545.506 217.401C546.068 217.261 546.73 217.19 547.492 217.19H548.767ZM556.158 209.5V223H553.188V209.5H556.158ZM560.904 221.884L563.365 213.49H566.547L562.724 224.415C562.642 224.655 562.533 224.913 562.398 225.188C562.264 225.47 562.079 225.736 561.845 225.988C561.61 226.24 561.309 226.445 560.939 226.604C560.576 226.762 560.125 226.841 559.586 226.841C559.299 226.841 559.088 226.826 558.953 226.797C558.824 226.773 558.625 226.729 558.355 226.665V224.547C558.432 224.547 558.496 224.547 558.549 224.547C558.607 224.547 558.672 224.547 558.742 224.547C559.059 224.547 559.311 224.515 559.498 224.45C559.691 224.386 559.838 224.292 559.938 224.169C560.043 224.046 560.125 223.896 560.184 223.721L560.904 221.884ZM560.28 213.49L562.152 220.144L562.478 223.281H560.491L557.107 213.49H560.28ZM572.304 220.328C572.304 220.164 572.248 220.023 572.137 219.906C572.031 219.783 571.844 219.672 571.574 219.572C571.305 219.467 570.927 219.361 570.44 219.256C569.978 219.156 569.541 219.024 569.131 218.86C568.727 218.696 568.372 218.497 568.067 218.263C567.763 218.028 567.522 217.75 567.347 217.428C567.177 217.105 567.092 216.736 567.092 216.32C567.092 215.916 567.177 215.535 567.347 215.178C567.522 214.814 567.777 214.495 568.111 214.22C568.451 213.938 568.864 213.719 569.351 213.561C569.837 213.396 570.391 213.314 571.012 213.314C571.867 213.314 572.605 213.446 573.227 213.71C573.848 213.968 574.325 214.331 574.659 214.8C574.999 215.263 575.169 215.799 575.169 216.408H572.207C572.207 216.168 572.166 215.963 572.084 215.793C572.008 215.623 571.882 215.494 571.706 215.406C571.53 215.312 571.296 215.266 571.003 215.266C570.798 215.266 570.61 215.304 570.44 215.38C570.276 215.456 570.145 215.562 570.045 215.696C569.945 215.831 569.896 215.989 569.896 216.171C569.896 216.3 569.925 216.417 569.983 216.522C570.048 216.622 570.145 216.716 570.273 216.804C570.402 216.886 570.566 216.962 570.766 217.032C570.965 217.097 571.205 217.155 571.486 217.208C572.125 217.325 572.723 217.492 573.279 217.709C573.836 217.926 574.287 218.233 574.633 218.632C574.984 219.03 575.16 219.566 575.16 220.24C575.16 220.662 575.063 221.052 574.87 221.409C574.677 221.761 574.398 222.071 574.035 222.341C573.672 222.604 573.235 222.81 572.726 222.956C572.216 223.103 571.642 223.176 571.003 223.176C570.095 223.176 569.327 223.015 568.7 222.692C568.073 222.364 567.599 221.954 567.276 221.462C566.96 220.964 566.802 220.46 566.802 219.95H569.562C569.573 220.243 569.644 220.483 569.772 220.671C569.907 220.858 570.086 220.996 570.309 221.084C570.531 221.172 570.789 221.216 571.082 221.216C571.352 221.216 571.574 221.178 571.75 221.102C571.932 221.025 572.069 220.923 572.163 220.794C572.257 220.659 572.304 220.504 572.304 220.328ZM579.678 213.49V223H576.707V213.49H579.678ZM576.531 211.038C576.531 210.616 576.684 210.271 576.988 210.001C577.293 209.731 577.688 209.597 578.175 209.597C578.661 209.597 579.057 209.731 579.361 210.001C579.666 210.271 579.818 210.616 579.818 211.038C579.818 211.46 579.666 211.806 579.361 212.075C579.057 212.345 578.661 212.479 578.175 212.479C577.688 212.479 577.293 212.345 576.988 212.075C576.684 211.806 576.531 211.46 576.531 211.038ZM586.489 220.328C586.489 220.164 586.434 220.023 586.322 219.906C586.217 219.783 586.029 219.672 585.76 219.572C585.49 219.467 585.112 219.361 584.626 219.256C584.163 219.156 583.727 219.024 583.316 218.86C582.912 218.696 582.558 218.497 582.253 218.263C581.948 218.028 581.708 217.75 581.532 217.428C581.362 217.105 581.277 216.736 581.277 216.32C581.277 215.916 581.362 215.535 581.532 215.178C581.708 214.814 581.963 214.495 582.297 214.22C582.637 213.938 583.05 213.719 583.536 213.561C584.022 213.396 584.576 213.314 585.197 213.314C586.053 213.314 586.791 213.446 587.412 213.71C588.033 213.968 588.511 214.331 588.845 214.8C589.185 215.263 589.354 215.799 589.354 216.408H586.393C586.393 216.168 586.352 215.963 586.27 215.793C586.193 215.623 586.067 215.494 585.892 215.406C585.716 215.312 585.481 215.266 585.188 215.266C584.983 215.266 584.796 215.304 584.626 215.38C584.462 215.456 584.33 215.562 584.23 215.696C584.131 215.831 584.081 215.989 584.081 216.171C584.081 216.3 584.11 216.417 584.169 216.522C584.233 216.622 584.33 216.716 584.459 216.804C584.588 216.886 584.752 216.962 584.951 217.032C585.15 217.097 585.391 217.155 585.672 217.208C586.311 217.325 586.908 217.492 587.465 217.709C588.021 217.926 588.473 218.233 588.818 218.632C589.17 219.03 589.346 219.566 589.346 220.24C589.346 220.662 589.249 221.052 589.056 221.409C588.862 221.761 588.584 222.071 588.221 222.341C587.857 222.604 587.421 222.81 586.911 222.956C586.401 223.103 585.827 223.176 585.188 223.176C584.28 223.176 583.513 223.015 582.886 222.692C582.259 222.364 581.784 221.954 581.462 221.462C581.146 220.964 580.987 220.46 580.987 219.95H583.747C583.759 220.243 583.829 220.483 583.958 220.671C584.093 220.858 584.271 220.996 584.494 221.084C584.717 221.172 584.975 221.216 585.268 221.216C585.537 221.216 585.76 221.178 585.936 221.102C586.117 221.025 586.255 220.923 586.349 220.794C586.442 220.659 586.489 220.504 586.489 220.328Z" fill="white"/>
<rect x="632" y="196" width="209" height="41" rx="3" fill="#424242"/>
<rect x="632" y="196" width="209" height="41" rx="3" stroke="#424242" stroke-width="4"/>
<path d="M662.294 218.667H665.37C665.329 219.558 665.089 220.343 664.649 221.022C664.21 221.702 663.601 222.232 662.821 222.613C662.048 222.988 661.134 223.176 660.079 223.176C659.224 223.176 658.459 223.032 657.785 222.745C657.117 222.458 656.549 222.045 656.08 221.506C655.617 220.967 655.263 220.313 655.017 219.546C654.776 218.778 654.656 217.914 654.656 216.953V216.259C654.656 215.298 654.782 214.434 655.034 213.666C655.292 212.893 655.655 212.236 656.124 211.697C656.599 211.152 657.167 210.736 657.829 210.449C658.491 210.162 659.227 210.019 660.035 210.019C661.148 210.019 662.089 210.218 662.856 210.616C663.624 211.015 664.219 211.562 664.641 212.26C665.062 212.951 665.312 213.739 665.388 214.624H662.312C662.3 214.144 662.218 213.742 662.065 213.42C661.913 213.092 661.673 212.846 661.345 212.682C661.017 212.518 660.58 212.436 660.035 212.436C659.654 212.436 659.323 212.506 659.042 212.646C658.761 212.787 658.526 213.01 658.339 213.314C658.151 213.619 658.011 214.015 657.917 214.501C657.829 214.981 657.785 215.562 657.785 216.241V216.953C657.785 217.633 657.826 218.213 657.908 218.693C657.99 219.174 658.122 219.566 658.304 219.871C658.485 220.176 658.72 220.401 659.007 220.548C659.3 220.688 659.657 220.759 660.079 220.759C660.548 220.759 660.943 220.686 661.266 220.539C661.588 220.387 661.837 220.158 662.013 219.854C662.188 219.543 662.282 219.147 662.294 218.667ZM666.319 218.342V218.157C666.319 217.46 666.419 216.818 666.618 216.232C666.817 215.641 667.11 215.128 667.497 214.694C667.884 214.261 668.361 213.924 668.93 213.684C669.498 213.438 670.154 213.314 670.898 213.314C671.648 213.314 672.308 213.438 672.876 213.684C673.45 213.924 673.931 214.261 674.317 214.694C674.704 215.128 674.997 215.641 675.196 216.232C675.396 216.818 675.495 217.46 675.495 218.157V218.342C675.495 219.033 675.396 219.675 675.196 220.267C674.997 220.853 674.704 221.365 674.317 221.805C673.931 222.238 673.453 222.575 672.885 222.815C672.316 223.056 671.66 223.176 670.916 223.176C670.172 223.176 669.513 223.056 668.938 222.815C668.364 222.575 667.884 222.238 667.497 221.805C667.11 221.365 666.817 220.853 666.618 220.267C666.419 219.675 666.319 219.033 666.319 218.342ZM669.281 218.157V218.342C669.281 218.699 669.308 219.033 669.36 219.344C669.413 219.654 669.501 219.927 669.624 220.161C669.747 220.39 669.914 220.568 670.125 220.697C670.336 220.826 670.6 220.891 670.916 220.891C671.227 220.891 671.484 220.826 671.689 220.697C671.9 220.568 672.067 220.39 672.19 220.161C672.313 219.927 672.401 219.654 672.454 219.344C672.507 219.033 672.533 218.699 672.533 218.342V218.157C672.533 217.812 672.507 217.486 672.454 217.182C672.401 216.871 672.313 216.599 672.19 216.364C672.067 216.124 671.9 215.937 671.689 215.802C671.479 215.667 671.215 215.6 670.898 215.6C670.588 215.6 670.327 215.667 670.116 215.802C669.911 215.937 669.747 216.124 669.624 216.364C669.501 216.599 669.413 216.871 669.36 217.182C669.308 217.486 669.281 217.812 669.281 218.157ZM679.802 215.846V223H676.84V213.49H679.608L679.802 215.846ZM682.614 213.42L682.562 216.171C682.444 216.159 682.286 216.145 682.087 216.127C681.888 216.109 681.721 216.101 681.586 216.101C681.24 216.101 680.941 216.142 680.689 216.224C680.443 216.3 680.238 216.417 680.074 216.575C679.916 216.728 679.799 216.921 679.723 217.155C679.652 217.39 679.62 217.662 679.626 217.973L679.09 217.621C679.09 216.982 679.151 216.402 679.274 215.881C679.403 215.354 679.585 214.899 679.819 214.519C680.054 214.132 680.338 213.836 680.672 213.631C681.006 213.42 681.381 213.314 681.797 213.314C681.943 213.314 682.087 213.323 682.228 213.341C682.374 213.358 682.503 213.385 682.614 213.42ZM686.622 215.846V223H683.66V213.49H686.429L686.622 215.846ZM689.435 213.42L689.382 216.171C689.265 216.159 689.106 216.145 688.907 216.127C688.708 216.109 688.541 216.101 688.406 216.101C688.061 216.101 687.762 216.142 687.51 216.224C687.264 216.3 687.059 216.417 686.895 216.575C686.736 216.728 686.619 216.921 686.543 217.155C686.473 217.39 686.44 217.662 686.446 217.973L685.91 217.621C685.91 216.982 685.972 216.402 686.095 215.881C686.224 215.354 686.405 214.899 686.64 214.519C686.874 214.132 687.158 213.836 687.492 213.631C687.826 213.42 688.201 213.314 688.617 213.314C688.764 213.314 688.907 213.323 689.048 213.341C689.194 213.358 689.323 213.385 689.435 213.42ZM694.884 223.176C694.11 223.176 693.419 223.056 692.81 222.815C692.2 222.569 691.685 222.232 691.263 221.805C690.847 221.377 690.527 220.885 690.305 220.328C690.088 219.771 689.979 219.183 689.979 218.562V218.228C689.979 217.53 690.076 216.886 690.27 216.294C690.463 215.696 690.75 215.175 691.131 214.729C691.512 214.284 691.989 213.938 692.563 213.692C693.138 213.44 693.806 213.314 694.567 213.314C695.241 213.314 695.845 213.423 696.378 213.64C696.911 213.856 697.362 214.167 697.731 214.571C698.106 214.976 698.391 215.465 698.584 216.039C698.783 216.613 698.883 217.258 698.883 217.973V219.177H691.113V217.322H695.991V217.094C695.997 216.777 695.941 216.508 695.824 216.285C695.713 216.062 695.549 215.893 695.332 215.775C695.115 215.658 694.852 215.6 694.541 215.6C694.219 215.6 693.952 215.67 693.741 215.811C693.536 215.951 693.375 216.145 693.258 216.391C693.146 216.631 693.067 216.909 693.021 217.226C692.974 217.542 692.95 217.876 692.95 218.228V218.562C692.95 218.913 692.997 219.232 693.091 219.52C693.19 219.807 693.331 220.053 693.513 220.258C693.7 220.457 693.923 220.612 694.181 220.724C694.444 220.835 694.743 220.891 695.077 220.891C695.481 220.891 695.88 220.814 696.272 220.662C696.665 220.51 697.002 220.258 697.283 219.906L698.628 221.506C698.435 221.781 698.159 222.048 697.802 222.306C697.45 222.563 697.028 222.774 696.536 222.938C696.044 223.097 695.493 223.176 694.884 223.176ZM703.216 209.5V223H700.245V209.5H703.216ZM709.983 220.609V216.689C709.983 216.42 709.945 216.188 709.869 215.995C709.793 215.802 709.673 215.652 709.509 215.547C709.345 215.436 709.125 215.38 708.85 215.38C708.627 215.38 708.437 215.418 708.278 215.494C708.12 215.57 708 215.685 707.918 215.837C707.836 215.989 707.795 216.183 707.795 216.417H704.833C704.833 215.978 704.93 215.57 705.123 215.195C705.322 214.814 705.604 214.483 705.967 214.202C706.336 213.921 706.775 213.704 707.285 213.552C707.801 213.394 708.375 213.314 709.008 213.314C709.764 213.314 710.438 213.44 711.029 213.692C711.627 213.944 712.099 214.322 712.444 214.826C712.79 215.324 712.963 215.951 712.963 216.707V220.601C712.963 221.222 712.998 221.693 713.068 222.016C713.139 222.332 713.238 222.61 713.367 222.851V223H710.396C710.256 222.707 710.15 222.35 710.08 221.928C710.016 221.5 709.983 221.061 709.983 220.609ZM710.344 217.19L710.361 218.772H709.052C708.776 218.772 708.542 218.811 708.349 218.887C708.161 218.963 708.009 219.068 707.892 219.203C707.78 219.332 707.698 219.479 707.646 219.643C707.599 219.807 707.575 219.979 707.575 220.161C707.575 220.337 707.616 220.495 707.698 220.636C707.786 220.771 707.903 220.876 708.05 220.952C708.196 221.028 708.36 221.066 708.542 221.066C708.87 221.066 709.148 221.005 709.377 220.882C709.611 220.753 709.79 220.598 709.913 220.416C710.036 220.234 710.098 220.064 710.098 219.906L710.748 221.119C710.631 221.354 710.496 221.591 710.344 221.831C710.197 222.071 710.013 222.294 709.79 222.499C709.573 222.698 709.307 222.862 708.99 222.991C708.674 223.114 708.29 223.176 707.839 223.176C707.253 223.176 706.714 223.056 706.222 222.815C705.735 222.575 705.346 222.241 705.053 221.813C704.76 221.38 704.613 220.882 704.613 220.319C704.613 219.827 704.701 219.388 704.877 219.001C705.059 218.614 705.331 218.286 705.694 218.017C706.058 217.747 706.521 217.542 707.083 217.401C707.646 217.261 708.308 217.19 709.069 217.19H710.344ZM719.616 213.49V215.547H713.886V213.49H719.616ZM715.09 211.126H718.052V219.897C718.052 220.149 718.081 220.346 718.14 220.486C718.198 220.621 718.298 220.718 718.438 220.776C718.585 220.829 718.778 220.855 719.019 220.855C719.188 220.855 719.329 220.853 719.44 220.847C719.552 220.835 719.657 220.82 719.757 220.803V222.921C719.505 223.003 719.241 223.064 718.966 223.105C718.69 223.152 718.397 223.176 718.087 223.176C717.454 223.176 716.912 223.076 716.461 222.877C716.016 222.678 715.676 222.364 715.441 221.937C715.207 221.509 715.09 220.952 715.09 220.267V211.126ZM723.923 213.49V223H720.952V213.49H723.923ZM720.776 211.038C720.776 210.616 720.929 210.271 721.233 210.001C721.538 209.731 721.934 209.597 722.42 209.597C722.906 209.597 723.302 209.731 723.606 210.001C723.911 210.271 724.063 210.616 724.063 211.038C724.063 211.46 723.911 211.806 723.606 212.075C723.302 212.345 722.906 212.479 722.42 212.479C721.934 212.479 721.538 212.345 721.233 212.075C720.929 211.806 720.776 211.46 720.776 211.038ZM725.382 218.342V218.157C725.382 217.46 725.481 216.818 725.681 216.232C725.88 215.641 726.173 215.128 726.56 214.694C726.946 214.261 727.424 213.924 727.992 213.684C728.561 213.438 729.217 213.314 729.961 213.314C730.711 213.314 731.37 213.438 731.938 213.684C732.513 213.924 732.993 214.261 733.38 214.694C733.767 215.128 734.06 215.641 734.259 216.232C734.458 216.818 734.558 217.46 734.558 218.157V218.342C734.558 219.033 734.458 219.675 734.259 220.267C734.06 220.853 733.767 221.365 733.38 221.805C732.993 222.238 732.516 222.575 731.947 222.815C731.379 223.056 730.723 223.176 729.979 223.176C729.234 223.176 728.575 223.056 728.001 222.815C727.427 222.575 726.946 222.238 726.56 221.805C726.173 221.365 725.88 220.853 725.681 220.267C725.481 219.675 725.382 219.033 725.382 218.342ZM728.344 218.157V218.342C728.344 218.699 728.37 219.033 728.423 219.344C728.476 219.654 728.563 219.927 728.687 220.161C728.81 220.39 728.977 220.568 729.188 220.697C729.398 220.826 729.662 220.891 729.979 220.891C730.289 220.891 730.547 220.826 730.752 220.697C730.963 220.568 731.13 220.39 731.253 220.161C731.376 219.927 731.464 219.654 731.517 219.344C731.569 219.033 731.596 218.699 731.596 218.342V218.157C731.596 217.812 731.569 217.486 731.517 217.182C731.464 216.871 731.376 216.599 731.253 216.364C731.13 216.124 730.963 215.937 730.752 215.802C730.541 215.667 730.277 215.6 729.961 215.6C729.65 215.6 729.39 215.667 729.179 215.802C728.974 215.937 728.81 216.124 728.687 216.364C728.563 216.599 728.476 216.871 728.423 217.182C728.37 217.486 728.344 217.812 728.344 218.157ZM738.785 215.521V223H735.823V213.49H738.601L738.785 215.521ZM738.434 217.92L737.739 217.938C737.739 217.211 737.827 216.563 738.003 215.995C738.179 215.421 738.428 214.935 738.75 214.536C739.072 214.138 739.456 213.836 739.901 213.631C740.353 213.42 740.854 213.314 741.404 213.314C741.844 213.314 742.245 213.379 742.608 213.508C742.978 213.637 743.294 213.845 743.558 214.132C743.827 214.419 744.032 214.8 744.173 215.274C744.319 215.743 744.393 216.323 744.393 217.015V223H741.413V217.006C741.413 216.625 741.36 216.335 741.255 216.136C741.149 215.931 740.997 215.79 740.798 215.714C740.599 215.638 740.355 215.6 740.068 215.6C739.764 215.6 739.506 215.658 739.295 215.775C739.084 215.893 738.914 216.057 738.785 216.268C738.662 216.473 738.571 216.716 738.513 216.997C738.46 217.278 738.434 217.586 738.434 217.92ZM756.082 212.893L752.962 223H749.648L754.351 210.203H756.451L756.082 212.893ZM758.666 223L755.537 212.893L755.133 210.203H757.26L761.988 223H758.666ZM758.543 218.228V220.609H751.978V218.228H758.543ZM765.275 215.521V223H762.313V213.49H765.091L765.275 215.521ZM764.924 217.92L764.229 217.938C764.229 217.211 764.317 216.563 764.493 215.995C764.669 215.421 764.918 214.935 765.24 214.536C765.562 214.138 765.946 213.836 766.392 213.631C766.843 213.42 767.344 213.314 767.895 213.314C768.334 213.314 768.735 213.379 769.099 213.508C769.468 213.637 769.784 213.845 770.048 214.132C770.317 214.419 770.522 214.8 770.663 215.274C770.81 215.743 770.883 216.323 770.883 217.015V223H767.903V217.006C767.903 216.625 767.851 216.335 767.745 216.136C767.64 215.931 767.487 215.79 767.288 215.714C767.089 215.638 766.846 215.6 766.559 215.6C766.254 215.6 765.996 215.658 765.785 215.775C765.574 215.893 765.404 216.057 765.275 216.268C765.152 216.473 765.062 216.716 765.003 216.997C764.95 217.278 764.924 217.586 764.924 217.92ZM777.466 220.609V216.689C777.466 216.42 777.428 216.188 777.352 215.995C777.275 215.802 777.155 215.652 776.991 215.547C776.827 215.436 776.607 215.38 776.332 215.38C776.109 215.38 775.919 215.418 775.761 215.494C775.603 215.57 775.482 215.685 775.4 215.837C775.318 215.989 775.277 216.183 775.277 216.417H772.315C772.315 215.978 772.412 215.57 772.605 215.195C772.805 214.814 773.086 214.483 773.449 214.202C773.818 213.921 774.258 213.704 774.768 213.552C775.283 213.394 775.857 213.314 776.49 213.314C777.246 213.314 777.92 213.44 778.512 213.692C779.109 213.944 779.581 214.322 779.927 214.826C780.272 215.324 780.445 215.951 780.445 216.707V220.601C780.445 221.222 780.48 221.693 780.551 222.016C780.621 222.332 780.721 222.61 780.85 222.851V223H777.879C777.738 222.707 777.633 222.35 777.562 221.928C777.498 221.5 777.466 221.061 777.466 220.609ZM777.826 217.19L777.844 218.772H776.534C776.259 218.772 776.024 218.811 775.831 218.887C775.644 218.963 775.491 219.068 775.374 219.203C775.263 219.332 775.181 219.479 775.128 219.643C775.081 219.807 775.058 219.979 775.058 220.161C775.058 220.337 775.099 220.495 775.181 220.636C775.269 220.771 775.386 220.876 775.532 220.952C775.679 221.028 775.843 221.066 776.024 221.066C776.353 221.066 776.631 221.005 776.859 220.882C777.094 220.753 777.272 220.598 777.396 220.416C777.519 220.234 777.58 220.064 777.58 219.906L778.23 221.119C778.113 221.354 777.979 221.591 777.826 221.831C777.68 222.071 777.495 222.294 777.272 222.499C777.056 222.698 776.789 222.862 776.473 222.991C776.156 223.114 775.772 223.176 775.321 223.176C774.735 223.176 774.196 223.056 773.704 222.815C773.218 222.575 772.828 222.241 772.535 221.813C772.242 221.38 772.096 220.882 772.096 220.319C772.096 219.827 772.184 219.388 772.359 219.001C772.541 218.614 772.813 218.286 773.177 218.017C773.54 217.747 774.003 217.542 774.565 217.401C775.128 217.261 775.79 217.19 776.552 217.19H777.826ZM785.218 209.5V223H782.247V209.5H785.218ZM789.964 221.884L792.425 213.49H795.606L791.783 224.415C791.701 224.655 791.593 224.913 791.458 225.188C791.323 225.47 791.139 225.736 790.904 225.988C790.67 226.24 790.368 226.445 789.999 226.604C789.636 226.762 789.185 226.841 788.646 226.841C788.358 226.841 788.147 226.826 788.013 226.797C787.884 226.773 787.685 226.729 787.415 226.665V224.547C787.491 224.547 787.556 224.547 787.608 224.547C787.667 224.547 787.731 224.547 787.802 224.547C788.118 224.547 788.37 224.515 788.558 224.45C788.751 224.386 788.897 224.292 788.997 224.169C789.103 224.046 789.185 223.896 789.243 223.721L789.964 221.884ZM789.34 213.49L791.212 220.144L791.537 223.281H789.551L786.167 213.49H789.34ZM801.363 220.328C801.363 220.164 801.308 220.023 801.196 219.906C801.091 219.783 800.903 219.672 800.634 219.572C800.364 219.467 799.986 219.361 799.5 219.256C799.037 219.156 798.601 219.024 798.19 218.86C797.786 218.696 797.432 218.497 797.127 218.263C796.822 218.028 796.582 217.75 796.406 217.428C796.236 217.105 796.151 216.736 796.151 216.32C796.151 215.916 796.236 215.535 796.406 215.178C796.582 214.814 796.837 214.495 797.171 214.22C797.511 213.938 797.924 213.719 798.41 213.561C798.896 213.396 799.45 213.314 800.071 213.314C800.927 213.314 801.665 213.446 802.286 213.71C802.907 213.968 803.385 214.331 803.719 214.8C804.059 215.263 804.229 215.799 804.229 216.408H801.267C801.267 216.168 801.226 215.963 801.144 215.793C801.067 215.623 800.941 215.494 800.766 215.406C800.59 215.312 800.355 215.266 800.062 215.266C799.857 215.266 799.67 215.304 799.5 215.38C799.336 215.456 799.204 215.562 799.104 215.696C799.005 215.831 798.955 215.989 798.955 216.171C798.955 216.3 798.984 216.417 799.043 216.522C799.107 216.622 799.204 216.716 799.333 216.804C799.462 216.886 799.626 216.962 799.825 217.032C800.024 217.097 800.265 217.155 800.546 217.208C801.185 217.325 801.782 217.492 802.339 217.709C802.896 217.926 803.347 218.233 803.692 218.632C804.044 219.03 804.22 219.566 804.22 220.24C804.22 220.662 804.123 221.052 803.93 221.409C803.736 221.761 803.458 222.071 803.095 222.341C802.731 222.604 802.295 222.81 801.785 222.956C801.275 223.103 800.701 223.176 800.062 223.176C799.154 223.176 798.387 223.015 797.76 222.692C797.133 222.364 796.658 221.954 796.336 221.462C796.02 220.964 795.861 220.46 795.861 219.95H798.621C798.633 220.243 798.703 220.483 798.832 220.671C798.967 220.858 799.146 220.996 799.368 221.084C799.591 221.172 799.849 221.216 800.142 221.216C800.411 221.216 800.634 221.178 800.81 221.102C800.991 221.025 801.129 220.923 801.223 220.794C801.316 220.659 801.363 220.504 801.363 220.328ZM808.737 213.49V223H805.767V213.49H808.737ZM805.591 211.038C805.591 210.616 805.743 210.271 806.048 210.001C806.353 209.731 806.748 209.597 807.234 209.597C807.721 209.597 808.116 209.731 808.421 210.001C808.726 210.271 808.878 210.616 808.878 211.038C808.878 211.46 808.726 211.806 808.421 212.075C808.116 212.345 807.721 212.479 807.234 212.479C806.748 212.479 806.353 212.345 806.048 212.075C805.743 211.806 805.591 211.46 805.591 211.038ZM815.549 220.328C815.549 220.164 815.493 220.023 815.382 219.906C815.276 219.783 815.089 219.672 814.819 219.572C814.55 219.467 814.172 219.361 813.686 219.256C813.223 219.156 812.786 219.024 812.376 218.86C811.972 218.696 811.617 218.497 811.312 218.263C811.008 218.028 810.768 217.75 810.592 217.428C810.422 217.105 810.337 216.736 810.337 216.32C810.337 215.916 810.422 215.535 810.592 215.178C810.768 214.814 811.022 214.495 811.356 214.22C811.696 213.938 812.109 213.719 812.596 213.561C813.082 213.396 813.636 213.314 814.257 213.314C815.112 213.314 815.851 213.446 816.472 213.71C817.093 213.968 817.57 214.331 817.904 214.8C818.244 215.263 818.414 215.799 818.414 216.408H815.452C815.452 216.168 815.411 215.963 815.329 215.793C815.253 215.623 815.127 215.494 814.951 215.406C814.775 215.312 814.541 215.266 814.248 215.266C814.043 215.266 813.855 215.304 813.686 215.38C813.521 215.456 813.39 215.562 813.29 215.696C813.19 215.831 813.141 215.989 813.141 216.171C813.141 216.3 813.17 216.417 813.229 216.522C813.293 216.622 813.39 216.716 813.519 216.804C813.647 216.886 813.812 216.962 814.011 217.032C814.21 217.097 814.45 217.155 814.731 217.208C815.37 217.325 815.968 217.492 816.524 217.709C817.081 217.926 817.532 218.233 817.878 218.632C818.229 219.03 818.405 219.566 818.405 220.24C818.405 220.662 818.309 221.052 818.115 221.409C817.922 221.761 817.644 222.071 817.28 222.341C816.917 222.604 816.48 222.81 815.971 222.956C815.461 223.103 814.887 223.176 814.248 223.176C813.34 223.176 812.572 223.015 811.945 222.692C811.318 222.364 810.844 221.954 810.521 221.462C810.205 220.964 810.047 220.46 810.047 219.95H812.807C812.818 220.243 812.889 220.483 813.018 220.671C813.152 220.858 813.331 220.996 813.554 221.084C813.776 221.172 814.034 221.216 814.327 221.216C814.597 221.216 814.819 221.178 814.995 221.102C815.177 221.025 815.314 220.923 815.408 220.794C815.502 220.659 815.549 220.504 815.549 220.328Z" fill="white"/>
<path d="M1066 0H1348C1356.28 0 1363 6.71573 1363 15V282C1363 290.284 1356.28 297 1348 297H1066V0Z" fill="white"/>
<mask id="mask0_3_61" style="mask-type:luminance" maskUnits="userSpaceOnUse" x="1124" y="75" width="181" height="147">
<path d="M1304.92 75H1124V221.797H1304.92V75Z" fill="white"/>
</mask>
<g mask="url(#mask0_3_61)">
<path d="M1227.07 204.868C1225.82 203.105 1224.12 201.815 1221.99 201.332C1220.14 200.911 1218.23 200.983 1216.34 200.998L1192.48 201.183C1190.43 201.199 1188.47 202.981 1188.57 205.116C1188.66 207.234 1190.29 209.066 1192.48 209.049C1199.47 208.995 1206.46 208.941 1213.45 208.886C1215.1 208.874 1216.75 208.844 1218.39 208.849C1218.76 208.85 1219.13 208.87 1219.5 208.874C1219.59 208.875 1219.66 208.874 1219.7 208.872C1219.71 208.876 1219.72 208.879 1219.74 208.884C1219.93 208.937 1220.13 208.974 1220.32 209.024C1220.25 209.026 1220.45 209.148 1220.55 209.189C1220.56 209.216 1220.59 209.263 1220.63 209.335C1220.7 209.461 1220.9 209.841 1220.91 209.829C1221.2 210.581 1221.45 211.353 1221.64 212.138C1222.09 213.871 1222.19 214.233 1222.26 215.858C1222.34 217.911 1223.99 219.889 1226.16 219.791C1228.21 219.699 1230.16 218.06 1230.07 215.858C1229.92 212.148 1229.28 207.98 1227.07 204.868Z" fill="#E6E6E6"/>
<path d="M1193.88 213.744C1193.43 211.01 1192.99 208.275 1192.54 205.543C1192.07 202.772 1191.13 200.234 1188.98 198.415C1188.41 197.929 1187.82 197.475 1187.22 197.023C1187.01 196.864 1186.8 196.705 1186.59 196.542C1186.58 196.533 1186.57 196.526 1186.56 196.518C1186.54 196.498 1186.51 196.475 1186.48 196.444C1185.58 195.683 1184.72 194.888 1183.9 194.044C1183.17 193.293 1182.47 192.511 1181.8 191.697C1181.64 191.494 1181.47 191.289 1181.31 191.082C1181.28 191.046 1181.13 190.851 1181.03 190.723C1180.94 190.596 1180.77 190.365 1180.74 190.325C1180.55 190.055 1180.37 189.783 1180.19 189.508C1178.94 187.631 1177.86 185.648 1176.96 183.58C1176.88 183.375 1176.79 183.169 1176.7 182.961C1176.68 182.898 1176.65 182.817 1176.61 182.708C1176.43 182.208 1176.25 181.707 1176.08 181.2C1175.73 180.123 1175.43 179.03 1175.18 177.922C1175.05 177.374 1174.94 176.824 1174.84 176.271C1174.79 175.987 1174.74 175.702 1174.7 175.416C1174.69 175.369 1174.64 175.061 1174.62 174.887C1174.6 174.712 1174.56 174.402 1174.56 174.354C1174.53 174.066 1174.5 173.778 1174.48 173.49C1174.43 172.841 1174.4 172.191 1174.38 171.539C1174.35 170.382 1174.37 169.225 1174.44 168.068C1174.48 167.418 1174.54 166.77 1174.61 166.122C1174.62 166.082 1174.62 166.051 1174.62 166.023C1174.63 165.994 1174.63 165.961 1174.64 165.92C1174.69 165.562 1174.75 165.205 1174.81 164.849C1175.04 163.497 1175.35 162.158 1175.72 160.839C1175.9 160.215 1176.09 159.596 1176.3 158.982C1176.39 158.709 1176.49 158.438 1176.58 158.167C1176.58 158.184 1176.87 157.426 1176.88 157.4C1178.05 154.615 1179.96 152.076 1179.97 148.913C1179.97 146.771 1178.17 144.719 1176.06 144.818C1175.01 144.858 1174.01 145.307 1173.28 146.071C1172.55 146.835 1172.15 147.854 1172.15 148.913C1172.15 148.961 1172.15 149.002 1172.15 149.042C1172.13 149.108 1172.11 149.164 1172.1 149.213C1171.87 149.713 1171.59 150.188 1171.34 150.675C1170.65 152.008 1170.07 153.385 1169.51 154.782C1168.6 157.057 1167.9 159.413 1167.43 161.819C1166.4 167.091 1166.32 172.507 1167.19 177.807C1168.71 187.103 1173.7 196 1180.65 201.981C1181.25 202.5 1181.87 203.002 1182.5 203.493C1182.75 203.697 1183.01 203.896 1183.27 204.094C1183.4 204.188 1183.91 204.594 1183.69 204.397C1184.17 204.813 1184.37 205.023 1184.5 205.329C1184.52 205.4 1184.54 205.495 1184.57 205.627C1184.66 205.972 1184.74 206.317 1184.81 206.667C1185.42 209.728 1185.84 212.84 1186.34 215.921C1186.69 218.037 1189.28 219.415 1191.15 218.781C1193.33 218.042 1194.25 216.012 1193.88 213.744Z" fill="#E6E6E6"/>
<path d="M1227.46 221.682C1225.82 221.687 1224.25 221.036 1223.08 219.872C1221.92 218.708 1221.26 217.127 1221.25 215.475V210.989C1216.58 211.515 1200.6 211.393 1196.02 210.652V215.296C1196 216.946 1195.34 218.525 1194.18 219.688C1193.02 220.851 1191.44 221.503 1189.8 221.503C1188.16 221.503 1186.59 220.851 1185.42 219.688C1184.26 218.525 1183.6 216.946 1183.59 215.296V206.178C1177.38 202.709 1172.21 197.636 1168.6 191.483C1165 185.33 1163.09 178.32 1163.07 171.176C1163.07 158.927 1168.59 147.5 1178.2 139.826C1184.46 134.819 1192.06 131.808 1200.02 131.18C1201.1 131.095 1202.19 131.051 1203.26 131.051C1207.01 131.051 1223.93 131.634 1228.17 132.863L1237.85 123.197C1237.99 123.053 1238.17 122.955 1238.37 122.915C1238.57 122.876 1238.78 122.896 1238.96 122.974C1239.15 123.05 1239.31 123.18 1239.42 123.349C1239.54 123.518 1239.59 123.717 1239.59 123.92V125.457L1241.48 123.578C1241.62 123.434 1241.8 123.336 1242 123.296C1242.2 123.256 1242.4 123.277 1242.59 123.355C1242.78 123.43 1242.94 123.561 1243.05 123.73C1243.16 123.898 1243.22 124.098 1243.22 124.301V141.475C1248.08 145.882 1251.78 151.426 1254 157.617C1256.22 163.808 1256.88 170.454 1255.94 176.966C1255 183.478 1252.47 189.656 1248.59 194.951C1244.7 200.246 1239.58 204.495 1233.68 207.322V215.475C1233.67 217.127 1233.01 218.708 1231.84 219.872C1230.68 221.036 1229.1 221.687 1227.46 221.682ZM1221.74 210.431V215.475C1221.75 216.995 1222.36 218.449 1223.43 219.519C1224.5 220.59 1225.95 221.191 1227.46 221.191C1228.97 221.191 1230.42 220.59 1231.49 219.519C1232.57 218.449 1233.18 216.995 1233.19 215.475V207.011L1233.33 206.945C1239.95 203.78 1245.58 198.83 1249.58 192.642C1254.68 184.747 1256.79 175.276 1255.55 165.945C1254.31 156.613 1249.79 148.036 1242.81 141.767L1242.73 141.694V124.301C1242.73 124.195 1242.7 124.092 1242.64 124.004C1242.59 123.916 1242.5 123.848 1242.4 123.81C1242.31 123.768 1242.2 123.757 1242.1 123.778C1241.99 123.799 1241.9 123.85 1241.82 123.927L1239.1 126.636V123.92C1239.11 123.814 1239.08 123.711 1239.02 123.623C1238.96 123.535 1238.87 123.467 1238.78 123.429C1238.68 123.388 1238.57 123.376 1238.47 123.397C1238.36 123.418 1238.27 123.47 1238.19 123.546L1228.31 133.419L1228.17 133.375C1224.22 132.132 1207.03 131.543 1203.26 131.543C1202.2 131.543 1201.13 131.586 1200.06 131.67C1192.19 132.291 1184.68 135.265 1178.51 140.211C1169.01 147.792 1163.56 159.078 1163.56 171.176C1163.57 178.257 1165.47 185.204 1169.06 191.296C1172.65 197.388 1177.79 202.402 1183.95 205.818L1184.08 205.889V215.296C1184.09 216.816 1184.7 218.269 1185.77 219.339C1186.84 220.41 1188.29 221.01 1189.8 221.01C1191.31 221.01 1192.76 220.41 1193.83 219.339C1194.91 218.269 1195.51 216.816 1195.53 215.296V210.064L1195.82 210.118C1199.93 210.898 1217.27 211.021 1221.46 210.468L1221.74 210.431Z" fill="#3F3D56"/>
<path d="M1194.35 104.282L1167.3 112.462C1166.44 112.723 1165.72 113.318 1165.29 114.115C1164.86 114.911 1164.77 115.845 1165.03 116.711C1165.29 117.578 1165.88 118.305 1166.67 118.734C1167.46 119.163 1168.39 119.258 1169.25 118.999L1192.92 111.838L1193.42 111.688C1193.52 109.116 1194.21 106.604 1195.44 104.348C1195.29 104.278 1195.12 104.235 1194.95 104.22C1194.75 104.2 1194.54 104.221 1194.35 104.282Z" fill="#DABFFF"/>
<path d="M1168.78 120.743C1168.42 120.742 1168.07 120.627 1167.78 120.416C1167.49 120.204 1167.27 119.906 1167.16 119.563L1165.47 114.426C1165.4 114.211 1165.37 113.985 1165.39 113.76C1165.4 113.534 1165.46 113.314 1165.56 113.112C1165.66 112.91 1165.8 112.73 1165.97 112.583C1166.14 112.435 1166.34 112.322 1166.55 112.251L1188.57 104.909C1188.78 104.838 1189.01 104.809 1189.23 104.826C1189.46 104.842 1189.67 104.903 1189.88 105.004C1190.08 105.105 1190.25 105.246 1190.4 105.417C1190.55 105.588 1190.66 105.786 1190.73 106L1192.42 111.137C1192.56 111.559 1192.53 112.021 1192.34 112.423C1192.15 112.824 1191.81 113.136 1191.4 113.29C1191.38 113.298 1191.36 113.305 1191.34 113.312L1169.32 120.654C1169.15 120.713 1168.96 120.743 1168.78 120.743Z" fill="#907AD6"/>
<path d="M1210.01 95.1591C1205.57 95.1608 1201.3 96.9025 1198.11 100.015C1194.92 103.128 1193.06 107.368 1192.92 111.838C1192.92 112.013 1192.91 112.19 1192.91 112.367C1192.91 115.77 1193.92 119.097 1195.8 121.926C1197.67 124.756 1200.34 126.962 1203.47 128.264C1206.59 129.566 1210.03 129.907 1213.35 129.243C1216.66 128.579 1219.71 126.94 1222.1 124.534C1224.49 122.127 1226.12 119.061 1226.78 115.723C1227.44 112.385 1227.1 108.926 1225.81 105.782C1224.52 102.637 1222.32 99.9497 1219.51 98.059C1216.7 96.1682 1213.39 95.1591 1210.01 95.1591ZM1210.01 129.082C1205.61 129.078 1201.39 127.315 1198.27 124.181C1195.16 121.047 1193.41 116.798 1193.4 112.367C1193.4 112.138 1193.41 111.912 1193.42 111.688C1193.55 108.413 1194.63 105.251 1196.54 102.592C1198.44 99.934 1201.08 97.8975 1204.13 96.7363C1207.17 95.5751 1210.49 95.3402 1213.67 96.061C1216.84 96.7817 1219.74 98.4263 1221.99 100.79C1224.25 103.154 1225.76 106.133 1226.35 109.356C1226.94 112.58 1226.57 115.906 1225.29 118.92C1224.02 121.935 1221.89 124.506 1219.17 126.312C1216.45 128.119 1213.27 129.082 1210.01 129.082Z" fill="#3F3D56"/>
<path d="M1224.42 112.366C1224.42 116.213 1222.91 119.902 1220.2 122.622C1217.5 125.342 1213.83 126.87 1210.01 126.87C1206.19 126.87 1202.52 125.342 1199.82 122.622C1197.12 119.902 1195.6 116.213 1195.6 112.366C1195.6 111.907 1195.62 111.455 1195.66 111.007C1196.01 107.295 1197.77 103.86 1200.56 101.415C1203.36 98.9704 1206.99 97.7042 1210.69 97.8791C1214.39 98.054 1217.88 99.6566 1220.44 102.355C1223 105.052 1224.42 108.638 1224.42 112.366Z" fill="#E6E6E6"/>
<path d="M1214.3 113.33C1213.95 112.868 1213.5 112.502 1212.97 112.266C1212.32 111.99 1211.65 111.768 1210.96 111.602V107.654C1212.01 107.814 1213 108.268 1213.82 108.964L1214.61 107.256C1214.15 106.845 1213.63 106.518 1213.06 106.29C1212.43 106.032 1211.76 105.861 1211.09 105.781V103.78H1209.24V105.801C1208.53 105.881 1207.84 106.113 1207.23 106.482C1206.67 106.813 1206.2 107.275 1205.86 107.829C1205.54 108.369 1205.37 108.989 1205.38 109.621C1205.34 110.305 1205.54 110.98 1205.94 111.538C1206.3 112.021 1206.78 112.404 1207.33 112.649C1207.99 112.933 1208.67 113.161 1209.37 113.33V117.113C1208.13 117.019 1206.94 116.542 1205.97 115.749L1205.18 117.46C1205.72 117.91 1206.33 118.261 1206.99 118.497C1207.72 118.758 1208.47 118.917 1209.24 118.969V120.953H1211.09V118.932C1212.11 118.82 1213.07 118.376 1213.83 117.669C1214.16 117.349 1214.42 116.963 1214.59 116.535C1214.77 116.108 1214.86 115.648 1214.85 115.186C1214.88 114.524 1214.69 113.87 1214.3 113.33ZM1209.37 111.184C1208.92 111.047 1208.5 110.821 1208.14 110.52C1208 110.392 1207.88 110.233 1207.81 110.056C1207.73 109.878 1207.7 109.686 1207.71 109.493C1207.69 109.055 1207.85 108.63 1208.15 108.31C1208.48 107.975 1208.91 107.753 1209.37 107.674V111.184ZM1212.12 116.415C1211.81 116.737 1211.4 116.949 1210.96 117.022V113.768C1211.38 113.881 1211.77 114.079 1212.12 114.35C1212.25 114.462 1212.35 114.602 1212.42 114.759C1212.49 114.917 1212.52 115.088 1212.52 115.26C1212.53 115.682 1212.39 116.094 1212.12 116.415Z" fill="#DABFFF"/>
<path d="M1169.57 141.561C1169.19 141.56 1168.82 141.434 1168.52 141.203C1168.22 140.971 1168.01 140.646 1167.91 140.279L1166.99 136.771C1166.88 136.33 1166.94 135.861 1167.17 135.467C1167.39 135.073 1167.77 134.786 1168.21 134.669L1197.26 126.943C1197.7 126.828 1198.16 126.892 1198.55 127.122C1198.95 127.351 1199.23 127.728 1199.35 128.168L1200.13 131.14L1199.98 131.152C1192.53 131.735 1185.4 134.453 1179.44 138.986L1179.4 139.007L1170 141.504C1169.86 141.542 1169.71 141.561 1169.57 141.561Z" fill="#907AD6"/>
<path d="M1164.76 158.888C1161.35 158.381 1158.09 157.141 1155.2 155.252C1153.77 154.316 1152.44 153.226 1151.25 152C1150.07 150.789 1148.94 149.413 1148.36 147.801C1147.79 146.31 1147.82 144.658 1148.44 143.188C1149.04 141.726 1150.2 140.566 1151.65 139.961C1153.12 139.374 1154.88 139.311 1156.31 139.954C1156.99 140.254 1157.57 140.729 1158.01 141.332C1158.21 141.61 1158.36 141.923 1158.45 142.256C1158.54 142.557 1158.54 142.875 1158.47 143.18C1158.39 143.485 1158.24 143.768 1158.04 144.01C1157.84 144.253 1157.59 144.45 1157.31 144.587C1156.69 144.908 1156.01 145.115 1155.32 145.198C1154.62 145.294 1153.61 145.381 1153.05 144.817C1152.94 144.705 1152.85 144.57 1152.79 144.421C1152.74 144.307 1152.73 144.184 1152.74 144.062C1152.74 144.116 1152.78 143.946 1152.78 143.953C1152.77 143.978 1152.73 144.039 1152.78 143.945C1152.8 143.914 1152.82 143.885 1152.84 143.856C1152.82 143.88 1152.78 143.921 1152.85 143.852C1152.91 143.785 1152.99 143.737 1153.08 143.713C1153.11 143.703 1153.14 143.695 1153.18 143.686C1153.26 143.662 1153.09 143.687 1153.18 143.684C1153.21 143.683 1153.25 143.684 1153.28 143.682C1153.37 143.678 1153.2 143.659 1153.28 143.679C1153.31 143.688 1153.34 143.695 1153.38 143.706C1153.45 143.727 1153.33 143.655 1153.37 143.709C1153.43 143.773 1153.32 143.647 1153.38 143.709C1153.41 143.739 1153.44 143.772 1153.47 143.806C1153.57 143.913 1153.72 143.973 1153.87 143.973C1154.02 143.973 1154.17 143.913 1154.28 143.806C1154.38 143.696 1154.44 143.55 1154.44 143.398C1154.44 143.247 1154.38 143.101 1154.28 142.991C1153.71 142.287 1152.6 142.461 1152.03 143.056C1151.3 143.815 1151.59 145.018 1152.29 145.681C1153.1 146.431 1154.23 146.483 1155.26 146.357C1156.14 146.273 1156.99 146.031 1157.77 145.644C1158.55 145.257 1159.17 144.592 1159.49 143.778C1159.63 143.344 1159.69 142.883 1159.64 142.427C1159.6 141.971 1159.46 141.529 1159.23 141.131C1158.32 139.408 1156.43 138.524 1154.57 138.371C1153.61 138.295 1152.64 138.412 1151.73 138.714C1150.81 139.017 1149.97 139.498 1149.24 140.132C1147.83 141.404 1146.97 143.171 1146.82 145.067C1146.66 147.032 1147.42 148.941 1148.52 150.527C1149.68 152.139 1151.06 153.575 1152.62 154.793C1155.67 157.246 1159.26 158.946 1163.08 159.756C1163.53 159.851 1163.99 159.932 1164.45 159.999C1164.6 160.035 1164.75 160.013 1164.88 159.938C1165.01 159.864 1165.11 159.741 1165.15 159.597C1165.19 159.449 1165.17 159.292 1165.1 159.16C1165.02 159.027 1164.9 158.929 1164.76 158.888Z" fill="#3F3D56"/>
<path d="M1219.32 133.845C1214.33 133.774 1209.35 133.901 1204.39 134.227C1202.69 134.339 1201.22 134.942 1201.22 135.956C1201.22 136.804 1202.68 137.797 1204.39 137.684C1209.35 137.358 1214.32 137.231 1219.32 137.302C1223.39 137.36 1223.39 133.903 1219.32 133.845Z" fill="#CCCCCC"/>
<path d="M1211.94 137.131C1211.4 137.131 1198.72 137.11 1198.72 135.348C1198.72 133.586 1211.4 133.566 1211.94 133.566C1212.48 133.566 1225.16 133.586 1225.16 135.348C1225.16 137.11 1212.48 137.131 1211.94 137.131ZM1199.22 135.348C1199.57 135.883 1204.23 136.639 1211.94 136.639C1219.65 136.639 1224.31 135.883 1224.66 135.348C1224.31 134.814 1219.65 134.058 1211.94 134.058C1204.23 134.058 1199.57 134.814 1199.22 135.348Z" fill="#3F3D56"/>
<path d="M1252.16 183.456C1254.97 183.377 1258.46 183.279 1261.15 181.301C1261.95 180.688 1262.61 179.906 1263.08 179.01C1263.55 178.114 1263.82 177.125 1263.86 176.113C1263.92 174.551 1263.36 173.188 1262.29 172.275C1260.88 171.08 1258.83 170.8 1256.62 171.454L1258.91 154.603L1257.23 154.372L1254.53 174.181L1255.94 173.533C1257.57 172.781 1259.8 172.399 1261.19 173.58C1261.53 173.889 1261.8 174.272 1261.97 174.702C1262.14 175.131 1262.2 175.593 1262.17 176.053C1262.13 176.806 1261.92 177.542 1261.58 178.209C1261.23 178.876 1260.74 179.46 1260.15 179.921C1258.05 181.46 1255.27 181.659 1252.11 181.748L1252.16 183.456Z" fill="#3F3D56"/>
<path d="M1247.51 156.057H1238.37V157.765H1247.51V156.057Z" fill="#3F3D56"/>
<path d="M1173.7 149.419C1173.3 149.417 1172.9 149.27 1172.59 149.004C1172.29 148.737 1172.08 148.369 1172.02 147.964L1171.46 144.38C1171.39 143.929 1171.5 143.469 1171.77 143.1C1172.04 142.731 1172.44 142.484 1172.88 142.413L1202.57 137.732C1203.02 137.662 1203.48 137.774 1203.84 138.042C1204.21 138.311 1204.45 138.715 1204.52 139.166L1205.08 142.751C1205.15 143.201 1205.04 143.662 1204.77 144.03C1204.51 144.399 1204.11 144.646 1203.66 144.717L1173.97 149.398C1173.88 149.412 1173.79 149.419 1173.7 149.419Z" fill="#907AD6"/>
<path d="M1161.42 107.413C1168.3 107.413 1173.88 101.799 1173.88 94.8757C1173.88 87.9518 1168.3 82.3389 1161.42 82.3389C1154.54 82.3389 1148.96 87.9518 1148.96 94.8757C1148.96 101.799 1154.54 107.413 1161.42 107.413Z" fill="#DABFFF"/>
<path d="M1168.47 98.1195C1168.87 97.9793 1169.23 97.755 1169.54 97.4616C1169.74 97.2524 1169.89 97.0014 1169.99 96.7261C1170.08 96.4508 1170.12 96.1579 1170.09 95.868C1170.07 95.6613 1170.01 95.4613 1169.9 95.2838C1169.8 95.1062 1169.65 94.9558 1169.48 94.8443C1169.03 94.5653 1168.43 94.5759 1167.83 94.8565L1167.76 89.9627L1167.27 89.9697L1167.35 95.7228L1167.72 95.4774C1168.15 95.1933 1168.77 94.9872 1169.22 95.2631C1169.33 95.3362 1169.42 95.4338 1169.49 95.5485C1169.56 95.6632 1169.59 95.7918 1169.6 95.9243C1169.62 96.1403 1169.6 96.3583 1169.53 96.5633C1169.46 96.7683 1169.34 96.9556 1169.19 97.1125C1168.66 97.6413 1167.88 97.8185 1166.99 97.9805L1167.07 98.4643C1167.55 98.3916 1168.02 98.2762 1168.47 98.1195Z" fill="#2F2E41"/>
<path d="M1172.79 89.6193L1170.19 90.0157L1170.26 90.5018L1172.86 90.1053L1172.79 89.6193Z" fill="#2F2E41"/>
<path d="M1164.58 90.8704L1161.98 91.2669L1162.05 91.7529L1164.65 91.3565L1164.58 90.8704Z" fill="#2F2E41"/>
<path d="M1169.65 149.2C1169.2 149.199 1168.77 149.06 1168.4 148.803C1168.03 148.546 1167.75 148.182 1167.59 147.76L1159 124.612C1157.95 121.773 1158.06 118.63 1159.31 115.875C1160.56 113.119 1162.85 110.974 1165.67 109.911L1172.65 107.287C1172.92 107.185 1173.21 107.137 1173.5 107.147C1173.78 107.157 1174.07 107.225 1174.33 107.345C1174.59 107.463 1174.83 107.632 1175.02 107.843C1175.22 108.053 1175.37 108.301 1175.47 108.571L1191.38 138.803C1191.49 139.076 1191.53 139.366 1191.53 139.658C1191.52 139.949 1191.45 140.236 1191.33 140.502C1191.21 140.768 1191.04 141.008 1190.83 141.207C1190.62 141.406 1190.37 141.561 1190.1 141.664L1170.42 149.059C1170.17 149.152 1169.91 149.199 1169.65 149.2Z" fill="#907AD6"/>
<path d="M1170.53 108.083L1186.32 129.328L1175.64 108.306C1175.55 108.061 1175.41 107.835 1175.24 107.643C1175.06 107.45 1174.85 107.294 1174.62 107.183C1174.38 107.073 1174.13 107.01 1173.87 106.998C1173.61 106.986 1173.35 107.026 1173.11 107.115L1170.53 108.083Z" fill="#E6E6E6"/>
<path d="M1195.53 124.217L1167.34 122.39C1166.9 122.361 1166.46 122.245 1166.06 122.047C1165.66 121.849 1165.31 121.574 1165.01 121.238C1164.72 120.901 1164.49 120.51 1164.35 120.086C1164.21 119.662 1164.15 119.213 1164.18 118.766C1164.2 118.319 1164.32 117.882 1164.52 117.48C1164.71 117.078 1164.99 116.718 1165.32 116.423C1165.65 116.127 1166.04 115.9 1166.47 115.756C1166.89 115.611 1167.33 115.552 1167.78 115.581L1195.96 117.408C1196.17 117.421 1196.37 117.476 1196.56 117.568C1196.75 117.661 1196.92 117.79 1197.05 117.947C1197.19 118.105 1197.3 118.288 1197.36 118.487C1197.43 118.686 1197.46 118.895 1197.45 119.105L1197.21 122.726C1197.19 123.148 1196.99 123.543 1196.68 123.823C1196.36 124.103 1195.95 124.244 1195.53 124.217Z" fill="#DABFFF"/>
<path d="M1188 125.389C1187.96 125.389 1187.92 125.388 1187.88 125.385L1164.74 123.885C1164.51 123.87 1164.29 123.811 1164.09 123.712C1163.89 123.612 1163.71 123.473 1163.56 123.304C1163.42 123.134 1163.3 122.936 1163.23 122.723C1163.16 122.509 1163.13 122.283 1163.14 122.057L1163.54 115.873C1163.55 115.647 1163.61 115.427 1163.71 115.224C1163.81 115.021 1163.95 114.84 1164.11 114.691C1164.28 114.542 1164.48 114.427 1164.69 114.354C1164.9 114.282 1165.13 114.252 1165.35 114.266L1188.5 115.766C1188.95 115.796 1189.37 116.005 1189.67 116.348C1189.97 116.691 1190.12 117.139 1190.1 117.594L1189.7 123.779C1189.68 124.11 1189.56 124.428 1189.36 124.695C1189.17 124.961 1188.9 125.165 1188.59 125.281C1188.4 125.352 1188.2 125.389 1188 125.389Z" fill="#907AD6"/>
<path d="M1161.28 86.5389C1162.91 85.1204 1165.17 86.3893 1167.04 86.1672C1168.84 85.9547 1170.26 84.3315 1170.63 82.6072C1171.05 80.5954 1170.01 78.5799 1168.48 77.3255C1166.81 75.9518 1164.58 75.5574 1162.48 75.8115C1160.07 76.1028 1157.86 77.2347 1155.88 78.6037C1153.97 79.8842 1152.21 81.3829 1150.64 83.07C1149.24 84.6314 1148.05 86.4925 1147.67 88.5935C1147.32 90.5029 1147.59 92.6188 1148.71 94.2363C1149.3 95.0654 1150.1 95.7262 1151.02 96.155C1151.98 96.6303 1153.01 96.9701 1153.94 97.5075C1155.35 98.32 1156.72 100.005 1156.28 101.758C1156.18 102.141 1156 102.495 1155.73 102.788C1155.42 103.14 1154.85 102.675 1155.17 102.322C1155.72 101.701 1155.7 100.874 1155.4 100.134C1155.05 99.2993 1154.43 98.6099 1153.64 98.1784C1152.66 97.6172 1151.59 97.2708 1150.59 96.7596C1149.63 96.2927 1148.8 95.6 1148.16 94.7405C1146.97 93.0672 1146.61 90.8895 1146.88 88.875C1147.18 86.695 1148.29 84.714 1149.68 83.0539C1151.2 81.2472 1153.07 79.718 1154.97 78.3441C1157.02 76.87 1159.28 75.6237 1161.78 75.173C1163.94 74.7822 1166.29 75.0228 1168.18 76.211C1169.95 77.3202 1171.31 79.2282 1171.44 81.3601C1171.49 82.3302 1171.28 83.2957 1170.84 84.1573C1170.39 85.0189 1169.73 85.7455 1168.91 86.2623C1168.07 86.7672 1167.1 86.9945 1166.12 86.9121C1165.08 86.845 1164.04 86.5242 1162.99 86.6133C1162.52 86.6422 1162.07 86.8259 1161.71 87.1365C1161.35 87.4464 1160.92 86.8462 1161.28 86.5389Z" fill="#2F2E41"/>
</g>
</svg>
