<svg width="1363" height="163" viewBox="0 0 1363 163" fill="none" xmlns="http://www.w3.org/2000/svg">
<path d="M0 15C0 6.71573 6.71573 0 15 0H37V163H15C6.71573 163 0 156.284 0 148V15Z" fill="#424242"/>
<rect width="1097" height="163" transform="translate(37)" fill="#F0F0F0"/>
<path d="M101.906 53.9219L94.3945 51.2383V48.0859L104.602 52.375V54.6367L101.906 53.9219ZM94.3945 56.1719L101.918 53.4297L104.602 52.7852V55.0352L94.3945 59.3242V56.1719ZM114.504 43.9375H117.48L121.863 56.4648L126.246 43.9375H129.223L123.059 61H120.668L114.504 43.9375ZM112.898 43.9375H115.863L116.402 56.1484V61H112.898V43.9375ZM127.863 43.9375H130.84V61H127.324V56.1484L127.863 43.9375ZM140.555 58.1406V52.4922C140.555 52.0859 140.488 51.7383 140.355 51.4492C140.223 51.1523 140.016 50.9219 139.734 50.7578C139.461 50.5938 139.105 50.5117 138.668 50.5117C138.293 50.5117 137.969 50.5781 137.695 50.7109C137.422 50.8359 137.211 51.0195 137.062 51.2617C136.914 51.4961 136.84 51.7734 136.84 52.0938H133.465C133.465 51.5547 133.59 51.043 133.84 50.5586C134.09 50.0742 134.453 49.6484 134.93 49.2812C135.406 48.9062 135.973 48.6133 136.629 48.4023C137.293 48.1914 138.035 48.0859 138.855 48.0859C139.84 48.0859 140.715 48.25 141.48 48.5781C142.246 48.9062 142.848 49.3984 143.285 50.0547C143.73 50.7109 143.953 51.5312 143.953 52.5156V57.9414C143.953 58.6367 143.996 59.207 144.082 59.6523C144.168 60.0898 144.293 60.4727 144.457 60.8008V61H141.047C140.883 60.6562 140.758 60.2266 140.672 59.7109C140.594 59.1875 140.555 58.6641 140.555 58.1406ZM141 53.2773L141.023 55.1875H139.137C138.691 55.1875 138.305 55.2383 137.977 55.3398C137.648 55.4414 137.379 55.5859 137.168 55.7734C136.957 55.9531 136.801 56.1641 136.699 56.4062C136.605 56.6484 136.559 56.9141 136.559 57.2031C136.559 57.4922 136.625 57.7539 136.758 57.9883C136.891 58.2148 137.082 58.3945 137.332 58.5273C137.582 58.6523 137.875 58.7148 138.211 58.7148C138.719 58.7148 139.16 58.6133 139.535 58.4102C139.91 58.207 140.199 57.957 140.402 57.6602C140.613 57.3633 140.723 57.082 140.73 56.8164L141.621 58.2461C141.496 58.5664 141.324 58.8984 141.105 59.2422C140.895 59.5859 140.625 59.9102 140.297 60.2148C139.969 60.5117 139.574 60.7578 139.113 60.9531C138.652 61.1406 138.105 61.2344 137.473 61.2344C136.668 61.2344 135.938 61.0742 135.281 60.7539C134.633 60.4258 134.117 59.9766 133.734 59.4062C133.359 58.8281 133.172 58.1719 133.172 57.4375C133.172 56.7734 133.297 56.1836 133.547 55.668C133.797 55.1523 134.164 54.7188 134.648 54.3672C135.141 54.0078 135.754 53.7383 136.488 53.5586C137.223 53.3711 138.074 53.2773 139.043 53.2773H141ZM149.93 51.0859V61H146.555V48.3203H149.73L149.93 51.0859ZM153.75 48.2383L153.691 51.3672C153.527 51.3438 153.328 51.3242 153.094 51.3086C152.867 51.2852 152.66 51.2734 152.473 51.2734C151.996 51.2734 151.582 51.3359 151.23 51.4609C150.887 51.5781 150.598 51.7539 150.363 51.9883C150.137 52.2227 149.965 52.5078 149.848 52.8438C149.738 53.1797 149.676 53.5625 149.66 53.9922L148.98 53.7812C148.98 52.9609 149.062 52.207 149.227 51.5195C149.391 50.8242 149.629 50.2188 149.941 49.7031C150.262 49.1875 150.652 48.7891 151.113 48.5078C151.574 48.2266 152.102 48.0859 152.695 48.0859C152.883 48.0859 153.074 48.1016 153.27 48.1328C153.465 48.1562 153.625 48.1914 153.75 48.2383ZM158.719 42.9883V61H155.344V42.9883H158.719ZM166.711 48.3203L161.203 54.6016L158.25 57.5898L157.02 55.1523L159.363 52.1758L162.656 48.3203H166.711ZM163.207 61L159.457 55.1406L161.789 53.1016L167.098 61H163.207ZM173.766 61.2344C172.781 61.2344 171.898 61.0781 171.117 60.7656C170.336 60.4453 169.672 60.0039 169.125 59.4414C168.586 58.8789 168.172 58.2266 167.883 57.4844C167.594 56.7344 167.449 55.9375 167.449 55.0938V54.625C167.449 53.6641 167.586 52.7852 167.859 51.9883C168.133 51.1914 168.523 50.5 169.031 49.9141C169.547 49.3281 170.172 48.8789 170.906 48.5664C171.641 48.2461 172.469 48.0859 173.391 48.0859C174.289 48.0859 175.086 48.2344 175.781 48.5312C176.477 48.8281 177.059 49.25 177.527 49.7969C178.004 50.3438 178.363 51 178.605 51.7656C178.848 52.5234 178.969 53.3672 178.969 54.2969V55.7031H168.891V53.4531H175.652V53.1953C175.652 52.7266 175.566 52.3086 175.395 51.9414C175.23 51.5664 174.98 51.2695 174.645 51.0508C174.309 50.832 173.879 50.7227 173.355 50.7227C172.91 50.7227 172.527 50.8203 172.207 51.0156C171.887 51.2109 171.625 51.4844 171.422 51.8359C171.227 52.1875 171.078 52.6016 170.977 53.0781C170.883 53.5469 170.836 54.0625 170.836 54.625V55.0938C170.836 55.6016 170.906 56.0703 171.047 56.5C171.195 56.9297 171.402 57.3008 171.668 57.6133C171.941 57.9258 172.27 58.168 172.652 58.3398C173.043 58.5117 173.484 58.5977 173.977 58.5977C174.586 58.5977 175.152 58.4805 175.676 58.2461C176.207 58.0039 176.664 57.6406 177.047 57.1562L178.688 58.9375C178.422 59.3203 178.059 59.6875 177.598 60.0391C177.145 60.3906 176.598 60.6797 175.957 60.9062C175.316 61.125 174.586 61.2344 173.766 61.2344ZM187.102 48.3203V50.7109H179.719V48.3203H187.102ZM181.547 45.1914H184.922V57.1797C184.922 57.5469 184.969 57.8281 185.062 58.0234C185.164 58.2188 185.312 58.3555 185.508 58.4336C185.703 58.5039 185.949 58.5391 186.246 58.5391C186.457 58.5391 186.645 58.5312 186.809 58.5156C186.98 58.4922 187.125 58.4688 187.242 58.4453L187.254 60.9297C186.965 61.0234 186.652 61.0977 186.316 61.1523C185.98 61.207 185.609 61.2344 185.203 61.2344C184.461 61.2344 183.812 61.1133 183.258 60.8711C182.711 60.6211 182.289 60.2227 181.992 59.6758C181.695 59.1289 181.547 58.4102 181.547 57.5195V45.1914ZM190.84 43.9375H193.816L198.199 56.4648L202.582 43.9375H205.559L199.395 61H197.004L190.84 43.9375ZM189.234 43.9375H192.199L192.738 56.1484V61H189.234V43.9375ZM204.199 43.9375H207.176V61H203.66V56.1484L204.199 43.9375ZM213.609 48.3203V61H210.223V48.3203H213.609ZM210.012 45.0156C210.012 44.5234 210.184 44.1172 210.527 43.7969C210.871 43.4766 211.332 43.3164 211.91 43.3164C212.48 43.3164 212.938 43.4766 213.281 43.7969C213.633 44.1172 213.809 44.5234 213.809 45.0156C213.809 45.5078 213.633 45.9141 213.281 46.2344C212.938 46.5547 212.48 46.7148 211.91 46.7148C211.332 46.7148 210.871 46.5547 210.527 46.2344C210.184 45.9141 210.012 45.5078 210.012 45.0156ZM219.703 51.0273V61H216.328V48.3203H219.492L219.703 51.0273ZM219.211 54.2148H218.297C218.297 53.2773 218.418 52.4336 218.66 51.6836C218.902 50.9258 219.242 50.2812 219.68 49.75C220.117 49.2109 220.637 48.8008 221.238 48.5195C221.848 48.2305 222.527 48.0859 223.277 48.0859C223.871 48.0859 224.414 48.1719 224.906 48.3438C225.398 48.5156 225.82 48.7891 226.172 49.1641C226.531 49.5391 226.805 50.0352 226.992 50.6523C227.188 51.2695 227.285 52.0234 227.285 52.9141V61H223.887V52.9023C223.887 52.3398 223.809 51.9023 223.652 51.5898C223.496 51.2773 223.266 51.0586 222.961 50.9336C222.664 50.8008 222.297 50.7344 221.859 50.7344C221.406 50.7344 221.012 50.8242 220.676 51.0039C220.348 51.1836 220.074 51.4336 219.855 51.7539C219.645 52.0664 219.484 52.4336 219.375 52.8555C219.266 53.2773 219.211 53.7305 219.211 54.2148ZM237.34 58.2344V43H240.738V61H237.68L237.34 58.2344ZM229.324 54.8125V54.5664C229.324 53.5977 229.434 52.7188 229.652 51.9297C229.871 51.1328 230.191 50.4492 230.613 49.8789C231.035 49.3086 231.555 48.8672 232.172 48.5547C232.789 48.2422 233.492 48.0859 234.281 48.0859C235.023 48.0859 235.672 48.2422 236.227 48.5547C236.789 48.8672 237.266 49.3125 237.656 49.8906C238.055 50.4609 238.375 51.1367 238.617 51.918C238.859 52.6914 239.035 53.5391 239.145 54.4609V55C239.035 55.8828 238.859 56.7031 238.617 57.4609C238.375 58.2188 238.055 58.8828 237.656 59.4531C237.266 60.0156 236.789 60.4531 236.227 60.7656C235.664 61.0781 235.008 61.2344 234.258 61.2344C233.469 61.2344 232.766 61.0742 232.148 60.7539C231.539 60.4336 231.023 59.9844 230.602 59.4062C230.188 58.8281 229.871 58.1484 229.652 57.3672C229.434 56.5859 229.324 55.7344 229.324 54.8125ZM232.699 54.5664V54.8125C232.699 55.3359 232.738 55.8242 232.816 56.2773C232.902 56.7305 233.039 57.1328 233.227 57.4844C233.422 57.8281 233.672 58.0977 233.977 58.293C234.289 58.4805 234.668 58.5742 235.113 58.5742C235.691 58.5742 236.168 58.4453 236.543 58.1875C236.918 57.9219 237.203 57.5586 237.398 57.0977C237.602 56.6367 237.719 56.1055 237.75 55.5039V53.9688C237.727 53.4766 237.656 53.0352 237.539 52.6445C237.43 52.2461 237.266 51.9062 237.047 51.625C236.836 51.3438 236.57 51.125 236.25 50.9688C235.938 50.8125 235.566 50.7344 235.137 50.7344C234.699 50.7344 234.324 50.8359 234.012 51.0391C233.699 51.2344 233.445 51.5039 233.25 51.8477C233.062 52.1914 232.922 52.5977 232.828 53.0664C232.742 53.5273 232.699 54.0273 232.699 54.5664Z" fill="#888888"/>
<path d="M118.594 98.4219V104.75H101.086V98.4219H118.594ZM103.828 84.875V119H95.6016V84.875H103.828ZM124.125 84.875V119H115.922V84.875H124.125ZM127.992 106.578V106.086C127.992 104.227 128.258 102.516 128.789 100.953C129.32 99.375 130.102 98.0078 131.133 96.8516C132.164 95.6953 133.438 94.7969 134.953 94.1562C136.469 93.5 138.219 93.1719 140.203 93.1719C142.203 93.1719 143.961 93.5 145.477 94.1562C147.008 94.7969 148.289 95.6953 149.32 96.8516C150.352 98.0078 151.133 99.375 151.664 100.953C152.195 102.516 152.461 104.227 152.461 106.086V106.578C152.461 108.422 152.195 110.133 151.664 111.711C151.133 113.273 150.352 114.641 149.32 115.812C148.289 116.969 147.016 117.867 145.5 118.508C143.984 119.148 142.234 119.469 140.25 119.469C138.266 119.469 136.508 119.148 134.977 118.508C133.445 117.867 132.164 116.969 131.133 115.812C130.102 114.641 129.32 113.273 128.789 111.711C128.258 110.133 127.992 108.422 127.992 106.578ZM135.891 106.086V106.578C135.891 107.531 135.961 108.422 136.102 109.25C136.242 110.078 136.477 110.805 136.805 111.43C137.133 112.039 137.578 112.516 138.141 112.859C138.703 113.203 139.406 113.375 140.25 113.375C141.078 113.375 141.766 113.203 142.312 112.859C142.875 112.516 143.32 112.039 143.648 111.43C143.977 110.805 144.211 110.078 144.352 109.25C144.492 108.422 144.562 107.531 144.562 106.578V106.086C144.562 105.164 144.492 104.297 144.352 103.484C144.211 102.656 143.977 101.93 143.648 101.305C143.32 100.664 142.875 100.164 142.312 99.8047C141.75 99.4453 141.047 99.2656 140.203 99.2656C139.375 99.2656 138.68 99.4453 138.117 99.8047C137.57 100.164 137.133 100.664 136.805 101.305C136.477 101.93 136.242 102.656 136.102 103.484C135.961 104.297 135.891 105.164 135.891 106.086ZM163.688 111.453L168.375 93.6406H173.32L171.562 102.57L166.922 119H162.961L163.688 111.453ZM161.836 93.6406L164.742 111.312L165.07 119H160.266L154.266 93.6406H161.836ZM177.492 110.938L180.422 93.6406H187.992L182.039 119H177.234L177.492 110.938ZM173.883 93.6406L178.617 111.406L179.344 119H175.336L170.789 102.617L169.102 93.6406H173.883ZM218.297 84.875V119H210.07V84.875H218.297ZM228.562 84.875V91.2266H200.039V84.875H228.562ZM225.773 106.578V106.086C225.773 104.227 226.039 102.516 226.57 100.953C227.102 99.375 227.883 98.0078 228.914 96.8516C229.945 95.6953 231.219 94.7969 232.734 94.1562C234.25 93.5 236 93.1719 237.984 93.1719C239.984 93.1719 241.742 93.5 243.258 94.1562C244.789 94.7969 246.07 95.6953 247.102 96.8516C248.133 98.0078 248.914 99.375 249.445 100.953C249.977 102.516 250.242 104.227 250.242 106.086V106.578C250.242 108.422 249.977 110.133 249.445 111.711C248.914 113.273 248.133 114.641 247.102 115.812C246.07 116.969 244.797 117.867 243.281 118.508C241.766 119.148 240.016 119.469 238.031 119.469C236.047 119.469 234.289 119.148 232.758 118.508C231.227 117.867 229.945 116.969 228.914 115.812C227.883 114.641 227.102 113.273 226.57 111.711C226.039 110.133 225.773 108.422 225.773 106.578ZM233.672 106.086V106.578C233.672 107.531 233.742 108.422 233.883 109.25C234.023 110.078 234.258 110.805 234.586 111.43C234.914 112.039 235.359 112.516 235.922 112.859C236.484 113.203 237.188 113.375 238.031 113.375C238.859 113.375 239.547 113.203 240.094 112.859C240.656 112.516 241.102 112.039 241.43 111.43C241.758 110.805 241.992 110.078 242.133 109.25C242.273 108.422 242.344 107.531 242.344 106.578V106.086C242.344 105.164 242.273 104.297 242.133 103.484C241.992 102.656 241.758 101.93 241.43 101.305C241.102 100.664 240.656 100.164 240.094 99.8047C239.531 99.4453 238.828 99.2656 237.984 99.2656C237.156 99.2656 236.461 99.4453 235.898 99.8047C235.352 100.164 234.914 100.664 234.586 101.305C234.258 101.93 234.023 102.656 233.883 103.484C233.742 104.297 233.672 105.164 233.672 106.086ZM266.086 84.875H279.516C282.141 84.875 284.422 85.2656 286.359 86.0469C288.297 86.8281 289.789 87.9844 290.836 89.5156C291.898 91.0469 292.43 92.9375 292.43 95.1875C292.43 97.1406 292.125 98.7734 291.516 100.086C290.906 101.398 290.055 102.484 288.961 103.344C287.883 104.188 286.625 104.883 285.188 105.43L282.492 106.953H271.219L271.172 100.602H279.516C280.562 100.602 281.43 100.414 282.117 100.039C282.805 99.6641 283.32 99.1328 283.664 98.4453C284.023 97.7422 284.203 96.9062 284.203 95.9375C284.203 94.9531 284.023 94.1094 283.664 93.4062C283.305 92.7031 282.773 92.1641 282.07 91.7891C281.383 91.4141 280.531 91.2266 279.516 91.2266H274.312V119H266.086V84.875ZM284.766 119L277.219 103.906L285.938 103.859L293.578 118.648V119H284.766ZM311.836 112.836V93.6406H319.758V119H312.352L311.836 112.836ZM312.586 107.68L314.648 107.633C314.648 109.336 314.445 110.914 314.039 112.367C313.633 113.805 313.031 115.055 312.234 116.117C311.453 117.18 310.484 118.008 309.328 118.602C308.188 119.18 306.867 119.469 305.367 119.469C304.117 119.469 302.969 119.297 301.922 118.953C300.891 118.594 300 118.039 299.25 117.289C298.5 116.523 297.914 115.547 297.492 114.359C297.086 113.156 296.883 111.719 296.883 110.047V93.6406H304.781V110.094C304.781 110.656 304.852 111.141 304.992 111.547C305.133 111.953 305.336 112.297 305.602 112.578C305.867 112.844 306.195 113.047 306.586 113.188C306.992 113.312 307.453 113.375 307.969 113.375C309.156 113.375 310.086 113.125 310.758 112.625C311.43 112.125 311.898 111.445 312.164 110.586C312.445 109.727 312.586 108.758 312.586 107.68ZM331.875 99.0547V119H323.977V93.6406H331.383L331.875 99.0547ZM330.938 105.453L329.086 105.5C329.086 103.562 329.32 101.836 329.789 100.32C330.258 98.7891 330.922 97.4922 331.781 96.4297C332.641 95.3672 333.664 94.5625 334.852 94.0156C336.055 93.4531 337.391 93.1719 338.859 93.1719C340.031 93.1719 341.102 93.3438 342.07 93.6875C343.055 94.0312 343.898 94.5859 344.602 95.3516C345.32 96.1172 345.867 97.1328 346.242 98.3984C346.633 99.6484 346.828 101.195 346.828 103.039V119H338.883V103.016C338.883 102 338.742 101.227 338.461 100.695C338.18 100.148 337.773 99.7734 337.242 99.5703C336.711 99.3672 336.062 99.2656 335.297 99.2656C334.484 99.2656 333.797 99.4219 333.234 99.7344C332.672 100.047 332.219 100.484 331.875 101.047C331.547 101.594 331.305 102.242 331.148 102.992C331.008 103.742 330.938 104.562 330.938 105.453ZM363.773 108.195H357.047C357.047 106.82 357.141 105.609 357.328 104.562C357.531 103.5 357.875 102.547 358.359 101.703C358.844 100.859 359.5 100.078 360.328 99.3594C361.062 98.75 361.695 98.1641 362.227 97.6016C362.758 97.0391 363.164 96.4688 363.445 95.8906C363.727 95.3125 363.867 94.6953 363.867 94.0391C363.867 93.2266 363.75 92.5625 363.516 92.0469C363.297 91.5312 362.961 91.1484 362.508 90.8984C362.07 90.6328 361.516 90.5 360.844 90.5C360.297 90.5 359.781 90.6328 359.297 90.8984C358.828 91.1641 358.445 91.5781 358.148 92.1406C357.852 92.6875 357.688 93.4141 357.656 94.3203H349.711C349.758 91.9922 350.273 90.1016 351.258 88.6484C352.258 87.1797 353.586 86.1094 355.242 85.4375C356.914 84.75 358.781 84.4062 360.844 84.4062C363.125 84.4062 365.086 84.7578 366.727 85.4609C368.367 86.1641 369.625 87.2109 370.5 88.6016C371.375 89.9766 371.812 91.6719 371.812 93.6875C371.812 95.0312 371.555 96.2031 371.039 97.2031C370.539 98.1875 369.859 99.1094 369 99.9688C368.156 100.812 367.211 101.719 366.164 102.688C365.258 103.484 364.641 104.297 364.312 105.125C363.984 105.938 363.805 106.961 363.773 108.195ZM356.086 115.32C356.086 114.195 356.492 113.258 357.305 112.508C358.117 111.742 359.172 111.359 360.469 111.359C361.766 111.359 362.82 111.742 363.633 112.508C364.445 113.258 364.852 114.195 364.852 115.32C364.852 116.445 364.445 117.391 363.633 118.156C362.82 118.906 361.766 119.281 360.469 119.281C359.172 119.281 358.117 118.906 357.305 118.156C356.492 117.391 356.086 116.445 356.086 115.32Z" fill="black"/>
<path d="M1134 0H1348C1356.28 0 1363 6.71573 1363 15V148C1363 156.284 1356.28 163 1348 163H1134V0Z" fill="#DABFFF"/>
<path d="M1260.62 78.8847C1263.81 78.8847 1266.93 79.805 1269.59 81.5293C1272.25 83.2536 1274.32 85.7044 1275.54 88.5718C1276.76 91.4391 1277.08 94.5943 1276.46 97.6383C1275.84 100.682 1274.3 103.478 1272.04 105.673C1269.78 107.868 1266.9 109.362 1263.77 109.968C1260.63 110.573 1257.39 110.262 1254.43 109.075C1251.48 107.887 1248.96 105.876 1247.18 103.295C1245.41 100.714 1244.46 97.6806 1244.46 94.5769C1244.46 90.4151 1246.16 86.4237 1249.19 83.4808C1252.22 80.538 1256.33 78.8847 1260.62 78.8847ZM1260.62 73.6539C1256.36 73.6539 1252.19 74.881 1248.65 77.1801C1245.11 79.4791 1242.35 82.7469 1240.72 86.57C1239.09 90.3932 1238.66 94.6001 1239.49 98.6588C1240.32 102.717 1242.37 106.446 1245.39 109.372C1248.4 112.298 1252.24 114.291 1256.41 115.098C1260.59 115.905 1264.92 115.491 1268.86 113.907C1272.79 112.324 1276.16 109.642 1278.52 106.201C1280.89 102.76 1282.15 98.7151 1282.15 94.5769C1282.15 89.0278 1279.88 83.706 1275.85 79.7821C1271.81 75.8583 1266.33 73.6539 1260.62 73.6539Z" fill="white"/>
<path d="M1274.08 47.5H1220.23C1218.8 47.5 1217.43 48.0511 1216.42 49.0321C1215.41 50.013 1214.85 51.3435 1214.85 52.7307V105.038C1214.85 106.426 1215.41 107.756 1216.42 108.737C1217.43 109.718 1218.8 110.269 1220.23 110.269H1231V105.038H1220.23V68.423H1279.46V52.7307C1279.46 51.3435 1278.89 50.013 1277.88 49.0321C1276.87 48.0511 1275.5 47.5 1274.08 47.5ZM1220.23 63.1922V52.7307H1274.08V63.1922H1220.23Z" fill="white"/>
<path d="M1255.23 86.731V102.423L1268.69 94.5771L1255.23 86.731Z" fill="white"/>
</svg>
